<svg xmlns="http://www.w3.org/2000/svg" xmlns:svg="http://www.w3.org/2000/svg" id="svg3183" width="744.094" height="1052.362" version="1.1"><metadata id="metadata3188"/><g id="layer1"><g id="g4197"><polygon id="polygon12" fill="none" stroke="#000" points="54 -36 0 -36 0 0 54 0 54 -36" transform="matrix(1.25,0,0,1.25,198.44677,92.20295)"/><text id="text14" x="232.197" y="72.828" fill="#668000" font-size="12.5" text-anchor="middle">Access</text></g><g id="edge1" class="edge" transform="matrix(1.25,0,0,1.25,198.44677,92.20295)"><title id="title17">Access-&gt;Access</title><path id="path19" fill="none" stroke="#000" d="M 54.2408,-24.7434 C 64.0239,-24.8884 72,-22.6406 72,-18 c 0,2.8279 -2.9618,4.7672 -7.4895,5.818"/><polygon id="polygon21" fill="#000" stroke="#000" points="54.241 -11.257 63.886 -15.64 64.515 -8.668 64.515 -8.668"/></g><g id="g3163" transform="matrix(1.25,0,0,1.25,201.15492,42.20295)"><g id="node2" class="node" transform="translate(4,40)"><title id="title24">Look</title><ellipse id="ellipse26" cx="117" cy="-18" fill="none" stroke="#000" rx="27" ry="18"/><text id="text28" x="117" y="-15.5" fill="#00f" font-size="10" text-anchor="middle">Look</text></g><g id="edge2" class="edge" transform="translate(4,40)"><title id="title31">Look-&gt;Look</title><path id="path33" fill="none" stroke="#000" d="M 142.443,-24.6907 C 153.028,-25.1521 162,-22.9219 162,-18 c 0,3.23 -3.864,5.3008 -9.512,6.2124"/><polygon id="polygon35" fill="#000" stroke="#000" points="152.599 -8.289 152.599 -8.289 142.443 -11.309 152.266 -15.281"/></g></g><g id="g3153" transform="matrix(1.25,0,0,1.25,-36.366168,105.16212)"><g id="node3" class="node" transform="translate(4,40)"><title id="title38">Transfer</title><ellipse id="ellipse40" cx="211" cy="-18" fill="none" stroke="#000" rx="31.299" ry="18"/><text id="text42" x="211" y="-15.5" fill="#00f" font-size="10" text-anchor="middle">Transfer</text></g><g id="edge3" class="edge" transform="translate(4,40)"><title id="title45">Transfer-&gt;Transfer</title><path id="path47" fill="none" stroke="#000" d="M 240.177,-24.7352 C 251.05,-24.956 260,-22.7109 260,-18 c 0,3.0916 -3.855,5.1211 -9.578,6.0888"/><polygon id="polygon49" fill="#000" stroke="#000" points="240.177 -11.265 249.936 -15.388 250.377 -8.402 250.377 -8.402"/></g></g><g id="g3143" transform="matrix(1.25,0,0,1.25,-38.658018,105.16212)"><g id="node4" class="node" transform="translate(4,40)"><title id="title52">Execute</title><ellipse id="ellipse54" cx="309" cy="-18" fill="none" stroke="#000" rx="31.299" ry="18"/><text id="text56" x="309" y="-15.5" fill="#00f" font-size="10" text-anchor="middle">Execute</text></g><g id="edge4" class="edge" transform="translate(4,40)"><title id="title59">Execute-&gt;Execute</title><path id="path61" fill="none" stroke="#000" d="M 338.177,-24.7352 C 349.05,-24.956 358,-22.7109 358,-18 c 0,3.0916 -3.855,5.1211 -9.578,6.0888"/><polygon id="polygon63" fill="#000" stroke="#000" points="348.377 -8.402 348.377 -8.402 338.177 -11.265 347.936 -15.388"/></g></g><g id="g3133" transform="matrix(1.25,0,0,1.25,-276.55323,168.12134)"><g id="node5" class="node" transform="translate(4,40)"><title id="title66">Move</title><ellipse id="ellipse68" cx="403" cy="-18" fill="none" stroke="#000" rx="27" ry="18"/><text id="text70" x="403" y="-15.5" fill="#00f" font-size="10" text-anchor="middle">Move</text></g><g id="edge5" class="edge" transform="translate(4,40)"><title id="title73">Move-&gt;Move</title><path id="path75" fill="none" stroke="#000" d="M 428.443,-24.6907 C 439.028,-25.1521 448,-22.9219 448,-18 c 0,3.23 -3.864,5.3008 -9.512,6.2124"/><polygon id="polygon77" fill="#000" stroke="#000" points="438.266 -15.281 438.599 -8.289 438.599 -8.289 428.443 -11.309"/></g></g><g id="g3123" transform="matrix(1.25,0,0,1.25,-269.61782,168.12134)"><g id="node6" class="node" transform="translate(0.76784524,40)"><title id="title80">Cleanup</title><ellipse id="ellipse82" cx="497" cy="-18" fill="none" stroke="#000" rx="31.299" ry="18"/><text id="text84" x="497" y="-15.5" fill="#00f" font-size="10" text-anchor="middle">Cleanup</text></g><g id="edge6" class="edge" transform="translate(0.76784524,40)"><title id="title87">Cleanup-&gt;Cleanup</title><path id="path89" fill="none" stroke="#000" d="M 526.177,-24.7352 C 537.05,-24.956 546,-22.7109 546,-18 c 0,3.0916 -3.855,5.1211 -9.578,6.0888"/><polygon id="polygon91" fill="#000" stroke="#000" points="536.377 -8.402 536.377 -8.402 526.177 -11.265 535.936 -15.388"/></g></g></g></svg>