<svg xmlns="http://www.w3.org/2000/svg" xmlns:svg="http://www.w3.org/2000/svg" id="svg2" width="218.861" height="222.88" version="1.1" viewBox="0 0 164.693 167.16"><metadata id="metadata139"/><polygon id="polygon12" fill="none" stroke="#000" points="70.454 -396 70.454 -396 16.454 -396 16.454 -360 70.454 -360" transform="translate(-12.410499,398.8367)"/><text id="text14" x="31.044" y="23.837" fill="#8a0" font-family="Helvetica, sans-Serif" font-size="10" text-anchor="middle">Access</text><g id="node2" class="node" transform="translate(89.74832,326.8367)"><title id="title17">Look</title><ellipse id="ellipse19" cx="43.454" cy="-306" fill="none" stroke="#000" rx="27" ry="18"/><text id="text21" x="43.454" y="-303" fill="#00f" font-family="Helvetica, sans-Serif" font-size="10" text-anchor="middle">Look</text></g><path id="path26" fill="none" stroke="#000" d="m 58.435699,20.591021 40.382318,0.0804"/><polygon id="polygon28" fill="#000" stroke="#000" points="46.954 -334.104 43.454 -324.104 39.954 -334.104 46.954 -334.104" transform="matrix(-0.00606963,-0.99998158,0.99998158,-0.00606963,429.92599,62.004731)"/><g id="node3" class="node" transform="translate(-12.410498,318.69023)"><title id="title31">Transfer</title><ellipse id="ellipse33" cx="43.454" cy="-234" fill="none" stroke="#000" rx="30.544" ry="18"/><text id="text35" x="43.454" y="-231" fill="#00f" font-family="Helvetica, sans-Serif" font-size="10" text-anchor="middle">Transfer</text></g><g id="node4" class="node" transform="translate(32.748316,246.69023)"><title id="title45">Move</title><ellipse id="ellipse47" cx="100.454" cy="-162" fill="none" stroke="#000" rx="27" ry="18"/><text id="text49" x="100.454" y="-159" fill="#00f" font-family="Helvetica, sans-Serif" font-size="10" text-anchor="middle">Move</text></g><g id="node5" class="node" transform="translate(-34.410501,238.54376)"><title id="title59">Execute</title><ellipse id="ellipse61" cx="65.454" cy="-90" fill="none" stroke="#000" rx="30.198" ry="18"/><text id="text63" x="65.454" y="-87" fill="#00f" font-family="Helvetica, sans-Serif" font-size="10" text-anchor="middle">Execute</text></g><g id="node6" class="node" transform="translate(67.748316,166.54376)"><title id="title87">Cleanup</title><ellipse id="ellipse89" cx="65.454" cy="-18" fill="none" stroke="#000" rx="30.991" ry="18"/><text id="text91" x="65.454" y="-15" fill="#00f" font-family="Helvetica, sans-Serif" font-size="10" text-anchor="middle">Cleanup</text></g><polygon id="polygon28-5" fill="#000" stroke="#000" points="46.954 -334.104 43.454 -324.104 39.954 -334.104 46.954 -334.104" transform="translate(90.367683,390.29424)"/><path id="path4368" fill="none" fill-rule="evenodd" stroke="#000" stroke-linecap="butt" stroke-linejoin="miter" stroke-opacity="1" stroke-width=".803" d="M 109.6603,31.540164 54.400282,72.226111"/><path id="path4370" fill="none" fill-rule="evenodd" stroke="#000" stroke-linecap="butt" stroke-linejoin="miter" stroke-opacity="1" stroke-width=".803" d="M 118.76909,36.094559 51.364017,134.77316"/><path id="path4372" fill="none" fill-rule="evenodd" stroke="#000" stroke-linecap="butt" stroke-linejoin="miter" stroke-opacity="1" stroke-width=".803" d="m 133.64678,38.219948 c 0,25.808243 0,27.630003 0,27.630003 l 0.91088,0 0,0"/><path id="path4374" fill="none" fill-rule="evenodd" stroke="#000" stroke-linecap="butt" stroke-linejoin="miter" stroke-opacity="1" stroke-width=".803" d="m 62.901823,78.602261 c 44.329467,-0.30362 44.936717,-0.30362 44.936717,-0.30362 l 0,0"/><path id="path4376" fill="none" fill-rule="evenodd" stroke="#000" stroke-linecap="butt" stroke-linejoin="miter" stroke-opacity="1" stroke-width=".803" d="M 51.364017,97.730731 105.71315,139.32756"/><path id="path4378" fill="none" fill-rule="evenodd" stroke="#000" stroke-linecap="butt" stroke-linejoin="miter" stroke-opacity="1" stroke-width=".803" d="m 133.95041,102.58876 c 0.30362,27.02276 0.30362,27.02276 0.30362,27.02276 l 0,0"/><path id="path4374-7" fill="none" fill-rule="evenodd" stroke="#000" stroke-linecap="butt" stroke-linejoin="miter" stroke-opacity="1" stroke-width=".803" d="m 58.652427,92.113641 c 44.329463,-0.30362 44.936713,-0.30362 44.936713,-0.30362 l 0,0"/><path id="path4404" fill="none" fill-rule="evenodd" stroke="#000" stroke-linecap="butt" stroke-linejoin="miter" stroke-opacity="1" stroke-width=".803" d="M 60.169184,142.97107 112.69656,97.730721"/><path id="path4406" fill="none" fill-rule="evenodd" stroke="#000" stroke-linecap="butt" stroke-linejoin="miter" stroke-opacity="1" stroke-width=".803" d="M 122.71623,101.67788 65.027208,147.52547"/><polygon id="polygon28-5-1" fill="#000" stroke="#000" points="43.454 -324.104 39.954 -334.104 46.954 -334.104 46.954 -334.104" transform="matrix(0.57505692,0.81811341,-0.81811341,0.57505692,-235.77156,222.76182)"/><polygon id="polygon28-5-17" fill="#000" stroke="#000" points="39.954 -334.104 46.954 -334.104 46.954 -334.104 43.454 -324.104" transform="matrix(0.79041151,0.61257624,-0.61257624,0.79041151,-181.60228,363.55931)"/><polygon id="polygon28-5-6" fill="#000" stroke="#000" points="46.954 -334.104 43.454 -324.104 39.954 -334.104 46.954 -334.104" transform="matrix(-0.69289945,-0.72103421,0.72103421,-0.69289945,376.51998,-95.691414)"/><polygon id="polygon28-5-0" fill="#000" stroke="#000" points="46.954 -334.104 43.454 -324.104 39.954 -334.104 46.954 -334.104" transform="matrix(0.58751512,-0.80921319,0.80921319,0.58751512,341.50687,363.89812)"/><polygon id="polygon28-5-02" fill="#000" stroke="#000" points="39.954 -334.104 46.954 -334.104 46.954 -334.104 43.454 -324.104" transform="matrix(-0.01867492,-0.99982561,0.99982561,-0.01867492,432.63229,128.79324)"/><polygon id="polygon28-5-4" fill="#000" stroke="#000" points="39.954 -334.104 46.954 -334.104 46.954 -334.104 43.454 -324.104" transform="matrix(-0.02025662,0.99979481,-0.99979481,-0.02025662,-262.32229,28.372151)"/><polygon id="polygon28-5-5" fill="#000" stroke="#000" points="39.954 -334.104 46.954 -334.104 46.954 -334.104 43.454 -324.104" transform="translate(90.671309,453.65434)"/><polygon id="polygon28-5-3" fill="#000" stroke="#000" points="39.954 -334.104 46.954 -334.104 46.954 -334.104 43.454 -324.104" transform="matrix(0.65001687,0.75991978,-0.75991978,0.65001687,-211.59797,327.01606)"/><polygon id="polygon28-5-16" fill="#000" stroke="#000" points="46.954 -334.104 46.954 -334.104 43.454 -324.104 39.954 -334.104" transform="translate(-12.776376,452.95549)"/><path id="path4372-8" fill="none" fill-rule="evenodd" stroke="#000" stroke-linecap="butt" stroke-linejoin="miter" stroke-opacity="1" stroke-width=".803" d="m 30.717416,103.02817 c 0,25.80824 0,27.63 0,27.63 l 0.91088,0 0,0"/><path id="path4374-7-3" fill="none" fill-rule="evenodd" stroke="#000" stroke-linecap="butt" stroke-linejoin="miter" stroke-opacity="1" stroke-width=".803" d="m 59.75085,153.03973 c 44.32946,-0.30362 36.435171,-0.30362 36.435171,-0.30362"/><polygon id="polygon28-5-02-0" fill="#000" stroke="#000" points="39.954 -334.104 46.954 -334.104 46.954 -334.104 43.454 -324.104" transform="matrix(-0.01867492,-0.99982564,0.99982564,-0.01867492,427.65818,190.32657)"/></svg>