<svg xmlns="http://www.w3.org/2000/svg" xmlns:xlink="http://www.w3.org/1999/xlink" width="180" height="404pt" viewBox="0 0 135.45 404"><g id="graph0" class="graph" transform="scale(1 1) rotate(0) translate(4 400)"><title>Ontology</title><polygon fill="#fff" stroke="none" points="-4 4 -4 -400 131.454 -400 131.454 4 -4 4"/><g id="node1" class="node"><title>Access</title><polygon fill="none" stroke="#000" points="70.454 -396 16.454 -396 16.454 -360 70.454 -360 70.454 -396"/><text x="43.454" y="-375" fill="red" font-family="Helvetica,sans-Serif" font-size="10" text-anchor="middle">Access</text></g><g id="node2" class="node"><title>Look</title><ellipse cx="43.454" cy="-306" fill="none" stroke="#000" rx="27" ry="18"/><text x="43.454" y="-303" fill="#00f" font-family="Helvetica,sans-Serif" font-size="10" text-anchor="middle">Look</text></g><g id="edge1" class="edge"><title>Access-&gt;Look</title><path fill="none" stroke="#000" d="M43.454,-359.697C43.454,-351.983 43.454,-342.712 43.454,-334.112"/><polygon fill="#000" stroke="#000" points="46.954 -334.104 43.454 -324.104 39.954 -334.104 46.954 -334.104"/></g><g id="node3" class="node"><title>Transfer</title><ellipse cx="43.454" cy="-234" fill="none" stroke="#000" rx="30.544" ry="18"/><text x="43.454" y="-231" fill="#00f" font-family="Helvetica,sans-Serif" font-size="10" text-anchor="middle">Transfer</text></g><g id="edge2" class="edge"><title>Look-&gt;Transfer</title><path fill="none" stroke="#000" d="M43.454,-287.697C43.454,-279.983 43.454,-270.712 43.454,-262.112"/><polygon fill="#000" stroke="#000" points="46.954 -262.104 43.454 -252.104 39.954 -262.104 46.954 -262.104"/></g><g id="node4" class="node"><title>Move</title><ellipse cx="100.454" cy="-162" fill="none" stroke="#000" rx="27" ry="18"/><text x="100.454" y="-159" fill="#00f" font-family="Helvetica,sans-Serif" font-size="10" text-anchor="middle">Move</text></g><g id="edge3" class="edge"><title>Look-&gt;Move</title><path fill="none" stroke="#000" d="M57.3899,-290.427C66.2036,-280.393 77.0952,-266.33 83.454,-252 92.1601,-232.38 96.415,-208.39 98.4904,-190.262"/><polygon fill="#000" stroke="#000" points="101.996 -190.382 99.499 -180.085 95.03 -189.691 101.996 -190.382"/></g><g id="node5" class="node"><title>Execute</title><ellipse cx="65.454" cy="-90" fill="none" stroke="#000" rx="30.198" ry="18"/><text x="65.454" y="-87" fill="#00f" font-family="Helvetica,sans-Serif" font-size="10" text-anchor="middle">Execute</text></g><g id="edge4" class="edge"><title>Look-&gt;Execute</title><path fill="none" stroke="#000" d="M28.6094,-290.78C19.412,-280.895 8.43419,-266.866 3.45402,-252 -1.62848,-236.829 -0.197066,-231.578 3.45402,-216 12.1789,-178.774 33.7132,-139.935 48.9452,-115.623"/><polygon fill="#000" stroke="#000" points="51.99 -117.358 54.434 -107.05 46.095 -113.584 51.99 -117.358"/></g><g id="edge5" class="edge"><title>Transfer-&gt;Move</title><path fill="none" stroke="#000" d="M51.1223,-216.411C57.9377,-206.746 67.8023,-194.462 77.0091,-184.112"/><polygon fill="#000" stroke="#000" points="79.675 -186.383 83.86 -176.65 74.519 -181.649 79.675 -186.383"/></g><g id="edge6" class="edge"><title>Transfer-&gt;Execute</title><path fill="none" stroke="#000" d="M46.1077,-215.871C49.8572,-191.67 56.7453,-147.211 61.21,-118.393"/><polygon fill="#000" stroke="#000" points="64.719 -118.607 62.791 -108.189 57.801 -117.535 64.719 -118.607"/></g><g id="node6" class="node"><title>Cleanup</title><ellipse cx="65.454" cy="-18" fill="none" stroke="#000" rx="30.991" ry="18"/><text x="65.454" y="-15" fill="#00f" font-family="Helvetica,sans-Serif" font-size="10" text-anchor="middle">Cleanup</text></g><g id="edge7" class="edge"><title>Transfer-&gt;Cleanup</title><path fill="none" stroke="#000" d="M37.1655,-216.06C27.0474,-186.173 9.88537,-122.472 26.454,-72 30.0183,-61.1424 36.7518,-50.6778 43.6335,-41.9567"/><polygon fill="#000" stroke="#000" points="46.421 -44.08 50.178 -34.174 41.063 -39.575 46.421 -44.08"/></g><g id="edge8" class="edge"><title>Move-&gt;Transfer</title><path fill="none" stroke="#000" d="M92.9513,-179.354C86.2434,-188.894 76.5085,-201.045 67.3596,-211.369"/><polygon fill="#000" stroke="#000" points="64.7 -209.091 60.538 -218.834 69.867 -213.814 64.7 -209.091"/></g><g id="edge9" class="edge"><title>Move-&gt;Execute</title><path fill="none" stroke="#000" d="M87.3954,-146.155C82.1647,-137.787 76.5061,-127.088 72.0629,-117.344"/><polygon fill="#000" stroke="#000" points="75.235 -115.859 68.086 -108.04 68.798 -118.611 75.235 -115.859"/></g><g id="edge10" class="edge"><title>Move-&gt;Cleanup</title><path fill="none" stroke="#000" d="M104.698,-144.116C108.499,-125.848 112.366,-96.1005 104.454,-72 100.89,-61.1424 94.1563,-50.6778 87.2745,-41.9567"/><polygon fill="#000" stroke="#000" points="89.844 -39.575 80.73 -34.174 84.487 -44.08 89.844 -39.575"/></g><g id="edge11" class="edge"><title>Execute-&gt;Move</title><path fill="none" stroke="#000" d="M78.8309,-106.356C83.9589,-114.625 89.4636,-125.056 93.8117,-134.583"/><polygon fill="#000" stroke="#000" points="90.712 -136.235 97.86 -144.055 97.148 -133.484 90.712 -136.235"/></g><g id="edge12" class="edge"><title>Execute-&gt;Cleanup</title><path fill="none" stroke="#000" d="M65.454,-71.6966C65.454,-63.9827 65.454,-54.7125 65.454,-46.1124"/><polygon fill="#000" stroke="#000" points="68.954 -46.104 65.454 -36.104 61.954 -46.104 68.954 -46.104"/></g></g></svg>