<svg xmlns="http://www.w3.org/2000/svg" xmlns:xlink="http://www.w3.org/1999/xlink" width="768" height="254pt" viewBox="0 0 576 254.18"><g id="graph0" class="graph" transform="scale(0.409964 0.409964) rotate(0) translate(4 616)"><title>CommandAbstraction</title><polygon fill="#fff" stroke="none" points="-4 4 -4 -616 1401 -616 1401 4 -4 4"/><g id="node1" class="node"><title>Access</title><ellipse cx="213" cy="-522" fill="none" stroke="#000" rx="32.76" ry="18"/><text x="213" y="-518.4" fill="#00f" font-family="Helvetica,sans-Serif" font-size="12" text-anchor="middle">Access</text></g><g id="node8" class="node"><title>Shell</title><polygon fill="none" stroke="#000" points="101 -468 47 -468 47 -432 101 -432 101 -468"/><text x="74" y="-447" font-family="Helvetica,sans-Serif" font-size="10" text-anchor="middle">Shell</text></g><g id="edge7" class="edge"><title>Access-&gt;Shell</title><path fill="none" stroke="#000" d="M189.421,-509.125C167.717,-498.196 135.2,-481.82 110.205,-469.233"/><polygon fill="#000" stroke="#000" points="111.538 -465.985 101.032 -464.613 108.39 -472.237 111.538 -465.985"/></g><g id="node2" class="node"><title>Look</title><ellipse cx="429" cy="-522" fill="none" stroke="#000" rx="27" ry="18"/><text x="429" y="-518.4" fill="#00f" font-family="Helvetica,sans-Serif" font-size="12" text-anchor="middle">Look</text></g><g id="node9" class="node"><title>LookSys</title><polygon fill="none" stroke="#000" points="238.356 -468 183.644 -468 183.644 -432 238.356 -432 238.356 -468"/><text x="211" y="-447" font-family="Helvetica,sans-Serif" font-size="10" text-anchor="middle">LookSys</text></g><g id="edge8" class="edge"><title>Look-&gt;LookSys</title><path fill="none" stroke="#000" d="M405.255,-513.376C367.398,-501.22 293.063,-477.351 248.128,-462.922"/><polygon fill="#000" stroke="#000" points="249.057 -459.544 238.466 -459.819 246.917 -466.209 249.057 -459.544"/></g><g id="node10" class="node"><title>LookDisk</title><polygon fill="none" stroke="#000" points="397.628 -468 340.372 -468 340.372 -432 397.628 -432 397.628 -468"/><text x="369" y="-447" font-family="Helvetica,sans-Serif" font-size="10" text-anchor="middle">LookDisk</text></g><g id="edge9" class="edge"><title>Look-&gt;LookDisk</title><path fill="none" stroke="#000" d="M415.981,-505.811C408.475,-497.054 398.854,-485.83 390.276,-475.822"/><polygon fill="#000" stroke="#000" points="392.845 -473.442 383.68 -468.127 387.531 -477.997 392.845 -473.442"/></g><g id="node11" class="node"><title>LookNet</title><polygon fill="none" stroke="#000" points="515 -468 461 -468 461 -432 515 -432 515 -468"/><text x="488" y="-447" font-family="Helvetica,sans-Serif" font-size="10" text-anchor="middle">LookNet</text></g><g id="edge10" class="edge"><title>Look-&gt;LookNet</title><path fill="none" stroke="#000" d="M441.802,-505.811C449.183,-497.054 458.643,-485.83 467.079,-475.822"/><polygon fill="#000" stroke="#000" points="469.796 -478.029 473.565 -468.127 464.444 -473.517 469.796 -478.029"/></g><g id="node3" class="node"><title>Transfer</title><ellipse cx="796" cy="-522" fill="none" stroke="#000" rx="36.449" ry="18"/><text x="796" y="-518.4" fill="#00f" font-family="Helvetica,sans-Serif" font-size="12" text-anchor="middle">Transfer</text></g><g id="node12" class="node"><title>Download</title><polygon fill="none" stroke="#000" points="746.475 -468 685.525 -468 685.525 -432 746.475 -432 746.475 -468"/><text x="716" y="-447" font-family="Helvetica,sans-Serif" font-size="10" text-anchor="middle">Download</text></g><g id="edge11" class="edge"><title>Transfer-&gt;Download</title><path fill="none" stroke="#000" d="M778.641,-505.811C768.336,-496.794 755.041,-485.161 743.352,-474.933"/><polygon fill="#000" stroke="#000" points="745.404 -472.078 735.573 -468.127 740.794 -477.346 745.404 -472.078"/></g><g id="node13" class="node"><title>Exfil</title><polygon fill="none" stroke="#000" points="823 -468 769 -468 769 -432 823 -432 823 -468"/><text x="796" y="-447" font-family="Helvetica,sans-Serif" font-size="10" text-anchor="middle">Exfil</text></g><g id="edge12" class="edge"><title>Transfer-&gt;Exfil</title><path fill="none" stroke="#000" d="M796,-503.697C796,-495.983 796,-486.712 796,-478.112"/><polygon fill="#000" stroke="#000" points="799.5 -478.104 796 -468.104 792.5 -478.104 799.5 -478.104"/></g><g id="node4" class="node"><title>Move</title><ellipse cx="953" cy="-522" fill="none" stroke="#000" rx="27.036" ry="18"/><text x="953" y="-518.4" fill="#00f" font-family="Helvetica,sans-Serif" font-size="12" text-anchor="middle">Move</text></g><g id="node14" class="node"><title>MoveDisk</title><polygon fill="none" stroke="#000" points="906.897 -468 847.103 -468 847.103 -432 906.897 -432 906.897 -468"/><text x="877" y="-447" font-family="Helvetica,sans-Serif" font-size="10" text-anchor="middle">MoveDisk</text></g><g id="edge13" class="edge"><title>Move-&gt;MoveDisk</title><path fill="none" stroke="#000" d="M937.62,-506.834C927.753,-497.746 914.686,-485.71 903.211,-475.141"/><polygon fill="#000" stroke="#000" points="905.306 -472.313 895.58 -468.113 900.564 -477.462 905.306 -472.313"/></g><g id="node15" class="node"><title>MoveNet</title><polygon fill="none" stroke="#000" points="981.015 -468 924.985 -468 924.985 -432 981.015 -432 981.015 -468"/><text x="953" y="-447" font-family="Helvetica,sans-Serif" font-size="10" text-anchor="middle">MoveNet</text></g><g id="edge14" class="edge"><title>Move-&gt;MoveNet</title><path fill="none" stroke="#000" d="M953,-503.697C953,-495.983 953,-486.712 953,-478.112"/><polygon fill="#000" stroke="#000" points="956.5 -478.104 953 -468.104 949.5 -478.104 956.5 -478.104"/></g><g id="node16" class="node"><title>ModifyDisk</title><polygon fill="none" stroke="#000" points="1063.4 -468 998.603 -468 998.603 -432 1063.4 -432 1063.4 -468"/><text x="1031" y="-447" font-family="Helvetica,sans-Serif" font-size="10" text-anchor="middle">ModifyDisk</text></g><g id="edge15" class="edge"><title>Move-&gt;ModifyDisk</title><path fill="none" stroke="#000" d="M968.784,-506.834C979.009,-497.659 992.581,-485.479 1004.44,-474.837"/><polygon fill="#000" stroke="#000" points="1006.83 -477.397 1011.93 -468.113 1002.15 -472.187 1006.83 -477.397"/></g><g id="node17" class="node"><title>ModifyNet</title><polygon fill="none" stroke="#000" points="1142.51 -468 1081.49 -468 1081.49 -432 1142.51 -432 1142.51 -468"/><text x="1112" y="-447" font-family="Helvetica,sans-Serif" font-size="10" text-anchor="middle">ModifyNet</text></g><g id="edge16" class="edge"><title>Move-&gt;ModifyNet</title><path fill="none" stroke="#000" d="M975.108,-511.267C1000.16,-500.236 1041.5,-482.037 1072.21,-468.518"/><polygon fill="#000" stroke="#000" points="1073.62 -471.719 1081.37 -464.486 1070.8 -465.312 1073.62 -471.719"/></g><g id="node5" class="node"><title>Execute</title><ellipse cx="1129" cy="-522" fill="none" stroke="#000" rx="35.891" ry="18"/><text x="1129" y="-518.4" fill="#00f" font-family="Helvetica,sans-Serif" font-size="12" text-anchor="middle">Execute</text></g><g id="node18" class="node"><title>.*exe</title><polygon fill="none" stroke="#000" points="1215 -468 1161 -468 1161 -432 1215 -432 1215 -468"/><text x="1188" y="-447" font-family="Helvetica,sans-Serif" font-size="10" text-anchor="middle">.*exe</text></g><g id="edge17" class="edge"><title>Execute-&gt;.*exe</title><path fill="none" stroke="#000" d="M1142.39,-505.116C1149.61,-496.544 1158.7,-485.766 1166.85,-476.089"/><polygon fill="#000" stroke="#000" points="1169.66 -478.194 1173.43 -468.292 1164.3 -473.683 1169.66 -478.194"/></g><g id="node6" class="node"><title>Cleanup</title><ellipse cx="1287" cy="-522" fill="none" stroke="#000" rx="36.504" ry="18"/><text x="1287" y="-518.4" fill="#00f" font-family="Helvetica,sans-Serif" font-size="12" text-anchor="middle">Cleanup</text></g><g id="node19" class="node"><title>del</title><polygon fill="none" stroke="#000" points="1287 -468 1233 -468 1233 -432 1287 -432 1287 -468"/><text x="1260" y="-447" font-family="Helvetica,sans-Serif" font-size="10" text-anchor="middle">del</text></g><g id="edge18" class="edge"><title>Cleanup-&gt;del</title><path fill="none" stroke="#000" d="M1280.46,-504.055C1277.43,-496.176 1273.74,-486.617 1270.33,-477.794"/><polygon fill="#000" stroke="#000" points="1273.53 -476.346 1266.66 -468.275 1267 -478.865 1273.53 -476.346"/></g><g id="node20" class="node"><title>erase</title><polygon fill="none" stroke="#000" points="1342 -396 1288 -396 1288 -360 1342 -360 1342 -396"/><text x="1315" y="-375" font-family="Helvetica,sans-Serif" font-size="10" text-anchor="middle">erase</text></g><g id="edge19" class="edge"><title>Cleanup-&gt;erase</title><path fill="none" stroke="#000" d="M1290.38,-503.871C1295.17,-479.564 1303.99,-434.819 1309.67,-406.013"/><polygon fill="#000" stroke="#000" points="1313.11 -406.677 1311.61 -396.189 1306.24 -405.323 1313.11 -406.677"/></g><g id="node21" class="node"><title>rm</title><polygon fill="none" stroke="#000" points="1397 -324 1343 -324 1343 -288 1397 -288 1397 -324"/><text x="1370" y="-303" font-family="Helvetica,sans-Serif" font-size="10" text-anchor="middle">rm</text></g><g id="edge20" class="edge"><title>Cleanup-&gt;rm</title><path fill="none" stroke="#000" d="M1295.92,-504.341C1301.47,-493.926 1308.72,-480.217 1315,-468 1331.36,-436.181 1339.17,-429.765 1351,-396 1358.08,-375.778 1363,-352.003 1366.05,-334.116"/><polygon fill="#000" stroke="#000" points="1369.53 -334.511 1367.67 -324.08 1362.62 -333.393 1369.53 -334.511"/></g><g id="node7" class="node"><title>Command</title><ellipse cx="874" cy="-594" fill="none" stroke="#000" rx="42.815" ry="18"/><text x="874" y="-590.4" fill="red" font-family="Helvetica,sans-Serif" font-size="12" text-anchor="middle">Command</text></g><g id="edge1" class="edge"><title>Command-&gt;Access</title><path fill="none" stroke="#000" stroke-dasharray="5 2" d="M832.651,-588.621C714.268,-576.084 374.872,-540.142 255.306,-527.48"/><polygon fill="#000" stroke="#000" points="255.406 -523.971 245.093 -526.399 254.668 -530.932 255.406 -523.971"/></g><g id="edge2" class="edge"><title>Command-&gt;Look</title><path fill="none" stroke="#000" stroke-dasharray="5 2" d="M834.509,-586.788C748.922,-573.325 547.418,-541.628 465.045,-528.67"/><polygon fill="#000" stroke="#000" points="465.342 -525.174 454.92 -527.077 464.255 -532.089 465.342 -525.174"/></g><g id="edge3" class="edge"><title>Command-&gt;Transfer</title><path fill="none" stroke="#000" stroke-dasharray="5 2" d="M856.689,-577.465C846.041,-567.909 832.23,-555.514 820.474,-544.963"/><polygon fill="#000" stroke="#000" points="822.507 -542.086 812.727 -538.011 817.832 -547.295 822.507 -542.086"/></g><g id="edge4" class="edge"><title>Command-&gt;Move</title><path fill="none" stroke="#000" stroke-dasharray="5 2" d="M891.533,-577.465C902.794,-567.486 917.548,-554.413 929.779,-543.576"/><polygon fill="#000" stroke="#000" points="932.226 -546.084 937.389 -536.832 927.583 -540.845 932.226 -546.084"/></g><g id="edge5" class="edge"><title>Command-&gt;Execute</title><path fill="none" stroke="#000" stroke-dasharray="5 2" d="M908.922,-583.414C955.883,-570.522 1039.2,-547.652 1088.74,-534.051"/><polygon fill="#000" stroke="#000" points="1089.76 -537.401 1098.48 -531.378 1087.91 -530.651 1089.76 -537.401"/></g><g id="edge6" class="edge"><title>Command-&gt;Cleanup</title><path fill="none" stroke="#000" stroke-dasharray="5 2" d="M913.226,-586.351C990.56,-573.244 1162.2,-544.153 1243.14,-530.434"/><polygon fill="#000" stroke="#000" points="1243.74 -533.882 1253.01 -528.76 1242.57 -526.981 1243.74 -533.882"/></g><g id="node22" class="node"><title>cmd.exe</title><polygon fill="none" stroke="#000" points="54 -396 0 -396 0 -360 54 -360 54 -396"/><text x="27" y="-375" font-family="Helvetica,sans-Serif" font-size="10" text-anchor="middle">cmd.exe</text></g><g id="edge21" class="edge"><title>Shell-&gt;cmd.exe</title><path fill="none" stroke="#000" d="M62.382,-431.697C56.8612,-423.474 50.153,-413.483 44.0682,-404.421"/><polygon fill="#000" stroke="#000" points="46.965 -402.456 38.484 -396.104 41.153 -406.358 46.965 -402.456"/></g><g id="node23" class="node"><title>set</title><polygon fill="none" stroke="#000" points="126 -396 72 -396 72 -360 126 -360 126 -396"/><text x="99" y="-375" font-family="Helvetica,sans-Serif" font-size="10" text-anchor="middle">set</text></g><g id="edge22" class="edge"><title>LookSys-&gt;set</title><path fill="none" stroke="#000" d="M183.602,-431.876C168.848,-422.655 150.475,-411.172 134.623,-401.265"/><polygon fill="#000" stroke="#000" points="136.45 -398.279 126.115 -395.947 132.74 -404.215 136.45 -398.279"/></g><g id="node24" class="node"><title>query</title><polygon fill="none" stroke="#000" points="164 -324 110 -324 110 -288 164 -288 164 -324"/><text x="137" y="-303" font-family="Helvetica,sans-Serif" font-size="10" text-anchor="middle">query</text></g><g id="edge23" class="edge"><title>LookSys-&gt;query</title><path fill="none" stroke="#000" d="M199.437,-431.66C192.832,-421.463 184.582,-408.213 178,-396 166.9,-375.404 155.893,-351.25 148.083,-333.306"/><polygon fill="#000" stroke="#000" points="151.262 -331.839 144.093 -324.038 144.833 -334.607 151.262 -331.839"/></g><g id="node25" class="node"><title>tasklist</title><polygon fill="none" stroke="#000" points="202 -252 148 -252 148 -216 202 -216 202 -252"/><text x="175" y="-231" font-family="Helvetica,sans-Serif" font-size="10" text-anchor="middle">tasklist</text></g><g id="edge24" class="edge"><title>LookSys-&gt;tasklist</title><path fill="none" stroke="#000" d="M208.115,-431.849C201.874,-394.753 187.08,-306.81 179.559,-262.103"/><polygon fill="#000" stroke="#000" points="183.009 -261.513 177.899 -252.232 176.106 -262.675 183.009 -261.513"/></g><g id="node26" class="node"><title>sc</title><polygon fill="none" stroke="#000" points="240 -180 186 -180 186 -144 240 -144 240 -180"/><text x="213" y="-159" font-family="Helvetica,sans-Serif" font-size="10" text-anchor="middle">sc</text></g><g id="edge25" class="edge"><title>LookSys-&gt;sc</title><path fill="none" stroke="#000" d="M211.813,-431.819C212.262,-421.448 212.774,-407.968 213,-396 214.403,-321.617 213.79,-233.854 213.334,-190.326"/><polygon fill="#000" stroke="#000" points="216.833 -190.209 213.222 -180.248 209.833 -190.286 216.833 -190.209"/></g><g id="node27" class="node"><title>whoami</title><polygon fill="none" stroke="#000" points="295 -108 241 -108 241 -72 295 -72 295 -108"/><text x="268" y="-87" font-family="Helvetica,sans-Serif" font-size="10" text-anchor="middle">whoami</text></g><g id="edge26" class="edge"><title>LookSys-&gt;whoami</title><path fill="none" stroke="#000" d="M222.81,-431.958C239.506,-406.158 268,-355.082 268,-307 268,-307 268,-307 268,-233 268,-192.996 268,-146.653 268,-118.08"/><polygon fill="#000" stroke="#000" points="271.5 -118.049 268 -108.049 264.5 -118.049 271.5 -118.049"/></g><g id="node28" class="node"><title>dir</title><polygon fill="none" stroke="#000" points="350 -396 296 -396 296 -360 350 -360 350 -396"/><text x="323" y="-375" font-family="Helvetica,sans-Serif" font-size="10" text-anchor="middle">dir</text></g><g id="edge27" class="edge"><title>LookDisk-&gt;dir</title><path fill="none" stroke="#000" d="M357.629,-431.697C352.282,-423.559 345.796,-413.689 339.889,-404.701"/><polygon fill="#000" stroke="#000" points="342.657 -402.539 334.24 -396.104 336.807 -406.384 342.657 -402.539"/></g><g id="node29" class="node"><title>ipconfig</title><polygon fill="none" stroke="#000" points="422 -396 368 -396 368 -360 422 -360 422 -396"/><text x="395" y="-375" font-family="Helvetica,sans-Serif" font-size="10" text-anchor="middle">ipconfig</text></g><g id="edge28" class="edge"><title>LookNet-&gt;ipconfig</title><path fill="none" stroke="#000" d="M465.011,-431.697C453.186,-422.796 438.608,-411.823 425.821,-402.199"/><polygon fill="#000" stroke="#000" points="427.819 -399.322 417.724 -396.104 423.609 -404.915 427.819 -399.322"/></g><g id="node30" class="node"><title>ping</title><polygon fill="none" stroke="#000" points="460 -324 406 -324 406 -288 460 -288 460 -324"/><text x="433" y="-303" font-family="Helvetica,sans-Serif" font-size="10" text-anchor="middle">ping</text></g><g id="edge29" class="edge"><title>LookNet-&gt;ping</title><path fill="none" stroke="#000" d="M481.366,-431.871C471.909,-407.457 454.468,-362.426 443.316,-333.635"/><polygon fill="#000" stroke="#000" points="446.533 -332.25 439.658 -324.189 440.006 -334.778 446.533 -332.25"/></g><g id="node31" class="node"><title>net user</title><polygon fill="none" stroke="#000" points="498 -252 444 -252 444 -216 498 -216 498 -252"/><text x="471" y="-231" font-family="Helvetica,sans-Serif" font-size="10" text-anchor="middle">net user</text></g><g id="edge30" class="edge"><title>LookNet-&gt;net user</title><path fill="none" stroke="#000" d="M486.638,-431.849C483.697,-394.832 476.734,-307.181 473.176,-262.386"/><polygon fill="#000" stroke="#000" points="476.65 -261.924 472.369 -252.232 469.672 -262.478 476.65 -261.924"/></g><g id="node32" class="node"><title>net view</title><polygon fill="none" stroke="#000" points="536 -180 482 -180 482 -144 536 -144 536 -180"/><text x="509" y="-159" font-family="Helvetica,sans-Serif" font-size="10" text-anchor="middle">net view</text></g><g id="edge31" class="edge"><title>LookNet-&gt;net view</title><path fill="none" stroke="#000" d="M491.35,-431.877C493.264,-421.527 495.562,-408.048 497,-396 505.849,-321.845 508.176,-233.646 508.786,-190.097"/><polygon fill="#000" stroke="#000" points="512.286 -190.064 508.907 -180.023 505.287 -189.98 512.286 -190.064"/></g><g id="node33" class="node"><title>net localgroup</title><polygon fill="none" stroke="#000" points="574.322 -108 495.678 -108 495.678 -72 574.322 -72 574.322 -108"/><text x="535" y="-87" font-family="Helvetica,sans-Serif" font-size="10" text-anchor="middle">net localgroup</text></g><g id="edge32" class="edge"><title>LookNet-&gt;net localgroup</title><path fill="none" stroke="#000" d="M504.491,-431.772C526.843,-406.534 564,-357.051 564,-307 564,-307 564,-307 564,-233 564,-192.215 552.373,-146.148 543.844,-117.84"/><polygon fill="#000" stroke="#000" points="547.176 -116.769 540.869 -108.257 540.491 -118.845 547.176 -116.769"/></g><g id="node34" class="node"><title>netstat</title><polygon fill="none" stroke="#000" points="629 -36 575 -36 575 0 629 0 629 -36"/><text x="602" y="-15" font-family="Helvetica,sans-Serif" font-size="10" text-anchor="middle">netstat</text></g><g id="edge33" class="edge"><title>LookNet-&gt;netstat</title><path fill="none" stroke="#000" d="M515.016,-431.964C548.728,-408.367 602,-362.325 602,-307 602,-307 602,-307 602,-161 602,-120.996 602,-74.6528 602,-46.0798"/><polygon fill="#000" stroke="#000" points="605.5 -46.049 602 -36.049 598.5 -46.049 605.5 -46.049"/></g><g id="node35" class="node"><title>download</title><polygon fill="none" stroke="#000" points="688.313 -396 629.687 -396 629.687 -360 688.313 -360 688.313 -396"/><text x="659" y="-375" font-family="Helvetica,sans-Serif" font-size="10" text-anchor="middle">download</text></g><g id="edge34" class="edge"><title>Download-&gt;download</title><path fill="none" stroke="#000" d="M701.91,-431.697C695.077,-423.305 686.743,-413.07 679.244,-403.861"/><polygon fill="#000" stroke="#000" points="681.956 -401.649 672.928 -396.104 676.528 -406.069 681.956 -401.649"/></g><g id="node36" class="node"><title>ftp</title><polygon fill="none" stroke="#000" points="743 -324 689 -324 689 -288 743 -288 743 -324"/><text x="716" y="-303" font-family="Helvetica,sans-Serif" font-size="10" text-anchor="middle">ftp</text></g><g id="edge35" class="edge"><title>Download-&gt;ftp</title><path fill="none" stroke="#000" d="M716,-431.871C716,-407.67 716,-363.211 716,-334.393"/><polygon fill="#000" stroke="#000" points="719.5 -334.189 716 -324.189 712.5 -334.189 719.5 -334.189"/></g><g id="node37" class="node"><title>upload</title><polygon fill="none" stroke="#000" points="798 -396 744 -396 744 -360 798 -360 798 -396"/><text x="771" y="-375" font-family="Helvetica,sans-Serif" font-size="10" text-anchor="middle">upload</text></g><g id="edge36" class="edge"><title>Exfil-&gt;upload</title><path fill="none" stroke="#000" d="M789.82,-431.697C787.005,-423.813 783.609,-414.304 780.481,-405.546"/><polygon fill="#000" stroke="#000" points="783.768 -404.345 777.109 -396.104 777.176 -406.699 783.768 -404.345"/></g><g id="node38" class="node"><title>type</title><polygon fill="none" stroke="#000" points="853 -324 799 -324 799 -288 853 -288 853 -324"/><text x="826" y="-303" font-family="Helvetica,sans-Serif" font-size="10" text-anchor="middle">type</text></g><g id="edge37" class="edge"><title>Exfil-&gt;type</title><path fill="none" stroke="#000" d="M799.619,-431.871C804.754,-407.564 814.207,-362.819 820.293,-334.013"/><polygon fill="#000" stroke="#000" points="823.726 -334.697 822.368 -324.189 816.877 -333.25 823.726 -334.697"/></g><g id="node39" class="node"><title>cd</title><polygon fill="none" stroke="#000" points="908 -396 854 -396 854 -360 908 -360 908 -396"/><text x="881" y="-375" font-family="Helvetica,sans-Serif" font-size="10" text-anchor="middle">cd</text></g><g id="edge38" class="edge"><title>MoveDisk-&gt;cd</title><path fill="none" stroke="#000" d="M877.989,-431.697C878.43,-423.983 878.959,-414.712 879.451,-406.112"/><polygon fill="#000" stroke="#000" points="882.946 -406.288 880.023 -396.104 875.958 -405.888 882.946 -406.288"/></g><g id="node40" class="node"><title>net use</title><polygon fill="none" stroke="#000" points="980 -396 926 -396 926 -360 980 -360 980 -396"/><text x="953" y="-375" font-family="Helvetica,sans-Serif" font-size="10" text-anchor="middle">net use</text></g><g id="edge39" class="edge"><title>MoveNet-&gt;net use</title><path fill="none" stroke="#000" d="M953,-431.697C953,-423.983 953,-414.712 953,-406.112"/><polygon fill="#000" stroke="#000" points="956.5 -406.104 953 -396.104 949.5 -406.104 956.5 -406.104"/></g><g id="node41" class="node"><title>copy</title><polygon fill="none" stroke="#000" points="1052 -396 998 -396 998 -360 1052 -360 1052 -396"/><text x="1025" y="-375" font-family="Helvetica,sans-Serif" font-size="10" text-anchor="middle">copy</text></g><g id="edge40" class="edge"><title>ModifyDisk-&gt;copy</title><path fill="none" stroke="#000" d="M1029.52,-431.697C1028.86,-423.983 1028.06,-414.712 1027.32,-406.112"/><polygon fill="#000" stroke="#000" points="1030.81 -405.769 1026.47 -396.104 1023.83 -406.367 1030.81 -405.769"/></g><g id="node42" class="node"><title>ren</title><polygon fill="none" stroke="#000" points="1099 -324 1045 -324 1045 -288 1099 -288 1099 -324"/><text x="1072" y="-303" font-family="Helvetica,sans-Serif" font-size="10" text-anchor="middle">ren</text></g><g id="edge41" class="edge"><title>ModifyDisk-&gt;ren</title><path fill="none" stroke="#000" d="M1043.12,-431.665C1049.49,-421.687 1056.82,-408.65 1061,-396 1067.62,-375.951 1070.32,-352.166 1071.38,-334.231"/><polygon fill="#000" stroke="#000" points="1074.88 -334.314 1071.85 -324.162 1067.89 -333.989 1074.88 -334.314"/></g><g id="node43" class="node"><title>move</title><polygon fill="none" stroke="#000" points="1154 -252 1100 -252 1100 -216 1154 -216 1154 -252"/><text x="1127" y="-231" font-family="Helvetica,sans-Serif" font-size="10" text-anchor="middle">move</text></g><g id="edge42" class="edge"><title>ModifyDisk-&gt;move</title><path fill="none" stroke="#000" d="M1049.61,-431.665C1059.31,-421.89 1070.83,-409.047 1079,-396 1105.54,-353.617 1118.06,-295.792 1123.43,-262.218"/><polygon fill="#000" stroke="#000" points="1126.91 -262.629 1124.94 -252.22 1119.99 -261.588 1126.91 -262.629"/></g><g id="node44" class="node"><title>ipcfg</title><polygon fill="none" stroke="#000" points="1209 -396 1155 -396 1155 -360 1209 -360 1209 -396"/><text x="1182" y="-375" font-family="Helvetica,sans-Serif" font-size="10" text-anchor="middle">ipcfg</text></g><g id="edge43" class="edge"><title>ModifyNet-&gt;ipcfg</title><path fill="none" stroke="#000" d="M1129.3,-431.697C1137.86,-423.135 1148.34,-412.656 1157.7,-403.304"/><polygon fill="#000" stroke="#000" points="1160.3 -405.65 1164.9 -396.104 1155.35 -400.701 1160.3 -405.65"/></g></g></svg>