<svg xmlns="http://www.w3.org/2000/svg" xmlns:svg="http://www.w3.org/2000/svg" id="svg2" width="254.36" height="220.891" version="1.1" viewBox="0 0 191.406 165.668"><metadata id="metadata139"/><defs id="defs137"><marker id="Arrow2Lstart" orient="auto" overflow="visible" refX="0" refY="0"><path id="path4220" fill="#000" fill-opacity="1" fill-rule="evenodd" stroke="#000" stroke-linejoin="round" stroke-opacity="1" stroke-width=".625" d="M 8.7185878,4.0337352 -2.2072895,0.01601326 8.7185884,-4.0017078 c -1.7454984,2.3720609 -1.7354408,5.6174519 -6e-7,8.035443 z" transform="matrix(1.1,0,0,1.1,1.1,0)"/></marker><marker id="TriangleOutL" orient="auto" overflow="visible" refX="0" refY="0"><path id="path4344" fill="#000" fill-opacity="1" fill-rule="evenodd" stroke="#000" stroke-opacity="1" stroke-width="1pt" d="m 5.77,0 -8.65,5 0,-10 8.65,5 z" transform="scale(0.8,0.8)"/></marker><marker id="Arrow2Lstart-9" orient="auto" overflow="visible" refX="0" refY="0"><path id="path4220-8" fill="#000" fill-opacity="1" fill-rule="evenodd" stroke="#000" stroke-linejoin="round" stroke-opacity="1" stroke-width=".625" d="M 8.7185878,4.0337352 -2.2072895,0.01601326 8.7185884,-4.0017078 c -1.7454984,2.3720609 -1.7354408,5.6174519 -6e-7,8.035443 z" transform="matrix(1.1,0,0,1.1,1.1,0)"/></marker><marker id="Arrow2Lstart-9-2" orient="auto" overflow="visible" refX="0" refY="0"><path id="path4220-8-0" fill="#000" fill-opacity="1" fill-rule="evenodd" stroke="#000" stroke-linejoin="round" stroke-opacity="1" stroke-width=".625" d="M 8.7185878,4.0337352 -2.2072895,0.01601326 8.7185884,-4.0017078 c -1.7454984,2.3720609 -1.7354408,5.6174519 -6e-7,8.035443 z" transform="matrix(1.1,0,0,1.1,1.1,0)"/></marker><marker id="Arrow2Lstart-9-6" orient="auto" overflow="visible" refX="0" refY="0"><path id="path4220-8-5" fill="#000" fill-opacity="1" fill-rule="evenodd" stroke="#000" stroke-linejoin="round" stroke-opacity="1" stroke-width=".625" d="M 8.7185878,4.0337352 -2.2072895,0.01601326 8.7185884,-4.0017078 c -1.7454984,2.3720609 -1.7354408,5.6174519 -6e-7,8.035443 z" transform="matrix(1.1,0,0,1.1,1.1,0)"/></marker><marker id="Arrow2Lstart-9-9" orient="auto" overflow="visible" refX="0" refY="0"><path id="path4220-8-7" fill="#000" fill-opacity="1" fill-rule="evenodd" stroke="#000" stroke-linejoin="round" stroke-opacity="1" stroke-width=".625" d="M 8.7185878,4.0337352 -2.2072895,0.01601326 8.7185884,-4.0017078 c -1.7454984,2.3720609 -1.7354408,5.6174519 -6e-7,8.035443 z" transform="matrix(1.1,0,0,1.1,1.1,0)"/></marker><marker id="Arrow2Lstart-9-9-5" orient="auto" overflow="visible" refX="0" refY="0"><path id="path4220-8-7-5" fill="#000" fill-opacity="1" fill-rule="evenodd" stroke="#000" stroke-linejoin="round" stroke-opacity="1" stroke-width=".625" d="M 8.7185878,4.0337352 -2.2072895,0.01601326 8.7185884,-4.0017078 c -1.7454984,2.3720609 -1.7354408,5.6174519 -6e-7,8.035443 z" transform="matrix(1.1,0,0,1.1,1.1,0)"/></marker><marker id="Arrow2Lstart-9-9-5-1" orient="auto" overflow="visible" refX="0" refY="0"><path id="path4220-8-7-5-5" fill="#000" fill-opacity="1" fill-rule="evenodd" stroke="#000" stroke-linejoin="round" stroke-opacity="1" stroke-width=".625" d="M 8.7185878,4.0337352 -2.2072895,0.01601326 8.7185884,-4.0017078 c -1.7454984,2.3720609 -1.7354408,5.6174519 -6e-7,8.035443 z" transform="matrix(1.1,0,0,1.1,1.1,0)"/></marker></defs><polygon id="polygon12" fill="none" stroke="#000" points="16.454 -360 70.454 -360 70.454 -396 70.454 -396 16.454 -396" transform="translate(1.4691927,396.22139)"/><text id="text14" x="44.923" y="21.221" fill="#8a0" font-family="Helvetica, sans-Serif" font-size="10" text-anchor="middle">Access</text><g id="node2" class="node" transform="translate(103.62801,324.22139)"><title id="title17">Look</title><ellipse id="ellipse19" cx="43.454" cy="-306" fill="none" stroke="#000" rx="27" ry="18"/><text id="text21" x="43.454" y="-303" fill="#00f" font-family="Helvetica, sans-Serif" font-size="10" text-anchor="middle">Look</text></g><path id="path26" fill="none" stroke="#000" d="m 72.315391,17.975716 40.382319,0.0804"/><polygon id="polygon28" fill="#000" stroke="#000" points="46.954 -334.104 46.954 -334.104 43.454 -324.104 39.954 -334.104" transform="matrix(-0.00606963,-0.99998158,0.99998158,-0.00606963,443.80568,59.389426)"/><g id="node3" class="node" transform="translate(1.4691937,316.07492)"><title id="title31">Transfer</title><ellipse id="ellipse33" cx="43.454" cy="-234" fill="none" stroke="#000" rx="30.544" ry="18"/><text id="text35" x="43.454" y="-231" fill="#00f" font-family="Helvetica, sans-Serif" font-size="10" text-anchor="middle">Transfer</text></g><g id="node4" class="node" transform="translate(46.628008,244.07492)"><title id="title45">Move</title><ellipse id="ellipse47" cx="100.454" cy="-162" fill="none" stroke="#000" rx="27" ry="18"/><text id="text49" x="100.454" y="-159" fill="#00f" font-family="Helvetica, sans-Serif" font-size="10" text-anchor="middle">Move</text></g><g id="node5" class="node" transform="translate(-20.530809,235.92845)"><title id="title59">Execute</title><ellipse id="ellipse61" cx="65.454" cy="-90" fill="none" stroke="#000" rx="30.198" ry="18"/><text id="text63" x="65.454" y="-87" fill="#00f" font-family="Helvetica, sans-Serif" font-size="10" text-anchor="middle">Execute</text></g><g id="node6" class="node" transform="translate(81.628008,163.92845)"><title id="title87">Cleanup</title><ellipse id="ellipse89" cx="65.454" cy="-18" fill="none" stroke="#000" rx="30.991" ry="18"/><text id="text91" x="65.454" y="-15" fill="#00f" font-family="Helvetica, sans-Serif" font-size="10" text-anchor="middle">Cleanup</text></g><polygon id="polygon28-5" fill="#000" stroke="#000" points="46.954 -334.104 46.954 -334.104 43.454 -324.104 39.954 -334.104" transform="translate(104.24737,387.67893)"/><path id="path4368" fill="none" fill-rule="evenodd" stroke="#000" stroke-linecap="butt" stroke-linejoin="miter" stroke-opacity="1" stroke-width=".803" d="M 123.53999,28.924859 68.279974,69.610806"/><path id="path4370" fill="none" fill-rule="evenodd" stroke="#000" stroke-linecap="butt" stroke-linejoin="miter" stroke-opacity="1" stroke-width=".803" d="M 132.64878,33.479254 65.243709,132.15785"/><path id="path4372" fill="none" fill-rule="evenodd" stroke="#000" stroke-linecap="butt" stroke-linejoin="miter" stroke-opacity="1" stroke-width=".803" d="m 147.52647,35.604643 c 0,25.808243 0,27.630003 0,27.630003 l 0.91088,0 0,0"/><path id="path4374" fill="none" fill-rule="evenodd" stroke="#000" stroke-linecap="butt" stroke-linejoin="miter" stroke-opacity="1" stroke-width=".803" d="m 76.781515,75.986956 c 44.329465,-0.30362 44.936715,-0.30362 44.936715,-0.30362 l 0,0"/><path id="path4376" fill="none" fill-rule="evenodd" stroke="#000" stroke-linecap="butt" stroke-linejoin="miter" stroke-opacity="1" stroke-width=".803" d="M 65.243709,95.115426 119.59284,136.71225"/><path id="path4378" fill="none" fill-rule="evenodd" stroke="#000" stroke-linecap="butt" stroke-linejoin="miter" stroke-opacity="1" stroke-width=".803" d="m 147.8301,99.973455 c 0.30362,27.022755 0.30362,27.022755 0.30362,27.022755 l 0,0"/><path id="path4374-7" fill="none" fill-rule="evenodd" stroke="#000" stroke-linecap="butt" stroke-linejoin="miter" stroke-opacity="1" stroke-width=".803" d="m 72.532119,89.498336 c 44.329461,-0.30362 44.936711,-0.30362 44.936711,-0.30362 l 0,0"/><path id="path4404" fill="none" fill-rule="evenodd" stroke="#000" stroke-linecap="butt" stroke-linejoin="miter" stroke-opacity="1" stroke-width=".803" d="M 74.048876,140.35576 126.57625,95.115416"/><path id="path4406" fill="none" fill-rule="evenodd" stroke="#000" stroke-linecap="butt" stroke-linejoin="miter" stroke-opacity="1" stroke-width=".803" d="M 136.59592,99.062575 78.9069,144.91016"/><polygon id="polygon28-5-1" fill="#000" stroke="#000" points="46.954 -334.104 43.454 -324.104 39.954 -334.104 46.954 -334.104" transform="matrix(0.57505692,0.81811341,-0.81811341,0.57505692,-221.89187,220.14651)"/><polygon id="polygon28-5-17" fill="#000" stroke="#000" points="43.454 -324.104 39.954 -334.104 46.954 -334.104 46.954 -334.104" transform="matrix(0.79041151,0.61257624,-0.61257624,0.79041151,-167.72259,360.944)"/><polygon id="polygon28-5-6" fill="#000" stroke="#000" points="46.954 -334.104 46.954 -334.104 43.454 -324.104 39.954 -334.104" transform="matrix(-0.69289945,-0.72103421,0.72103421,-0.69289945,390.39967,-98.306719)"/><polygon id="polygon28-5-0" fill="#000" stroke="#000" points="46.954 -334.104 46.954 -334.104 43.454 -324.104 39.954 -334.104" transform="matrix(0.58751512,-0.80921319,0.80921319,0.58751512,355.38656,361.28281)"/><polygon id="polygon28-5-02" fill="#000" stroke="#000" points="43.454 -324.104 39.954 -334.104 46.954 -334.104 46.954 -334.104" transform="matrix(-0.01867492,-0.99982561,0.99982561,-0.01867492,446.51198,126.17793)"/><polygon id="polygon28-5-4" fill="#000" stroke="#000" points="43.454 -324.104 39.954 -334.104 46.954 -334.104 46.954 -334.104" transform="matrix(-0.02025662,0.99979481,-0.99979481,-0.02025662,-248.4426,25.756846)"/><polygon id="polygon28-5-5" fill="#000" stroke="#000" points="43.454 -324.104 39.954 -334.104 46.954 -334.104 46.954 -334.104" transform="translate(104.551,451.03903)"/><polygon id="polygon28-5-3" fill="#000" stroke="#000" points="43.454 -324.104 39.954 -334.104 46.954 -334.104 46.954 -334.104" transform="matrix(0.65001687,0.75991978,-0.75991978,0.65001687,-197.71828,324.40075)"/><polygon id="polygon28-5-16" fill="#000" stroke="#000" points="39.954 -334.104 46.954 -334.104 46.954 -334.104 43.454 -324.104" transform="translate(1.1033157,450.34018)"/><path id="path4372-8" fill="none" fill-rule="evenodd" stroke="#000" stroke-linecap="butt" stroke-linejoin="miter" stroke-opacity="1" stroke-width=".803" d="m 44.597108,100.41286 c 0,25.80824 0,27.63 0,27.63 l 0.91088,0 0,0"/><path id="path4374-7-3" fill="none" fill-rule="evenodd" stroke="#000" stroke-linecap="butt" stroke-linejoin="miter" stroke-opacity="1" stroke-width=".803" d="M 73.630542,150.42442 C 117.96,150.1208 110.06571,150.1208 110.06571,150.1208"/><polygon id="polygon28-5-02-0" fill="#000" stroke="#000" points="43.454 -324.104 39.954 -334.104 46.954 -334.104 46.954 -334.104" transform="matrix(-0.01867492,-0.99982564,0.99982564,-0.01867492,441.53787,187.71126)"/><path id="path3388-5" fill="none" fill-opacity="1" stroke="#000" stroke-dasharray="none" stroke-dashoffset="0" stroke-linecap="butt" stroke-miterlimit="4" stroke-opacity="1" stroke-width=".803" marker-start="url(#Arrow2Lstart-9)" d="M 94.864906,-23.849777 A 13.739709,14.813845 0 0 1 91.812618,-5.8767818 13.739709,14.813845 0 0 1 74.896772,-4.7705982 13.739709,14.813845 0 0 1 69.852166,-22.21411" transform="matrix(-0.0152418,0.99988384,-0.99998959,-0.00456193,0,0)"/><path id="path3388-5-5" fill="none" fill-opacity="1" stroke="#000" stroke-dasharray="none" stroke-dashoffset="0" stroke-linecap="butt" stroke-miterlimit="4" stroke-opacity="1" stroke-width=".803" marker-start="url(#Arrow2Lstart-9-2)" d="M 158.66323,-25.553386 A 13.739709,14.813845 0 0 1 155.61094,-7.5803913 13.739709,14.813845 0 0 1 138.6951,-6.4742077 13.739709,14.813845 0 0 1 133.65049,-23.91772" transform="matrix(-0.0152418,0.99988384,-0.99998959,-0.00456193,0,0)"/><path id="path3388-5-3" fill="none" fill-opacity="1" stroke="#000" stroke-dasharray="none" stroke-dashoffset="0" stroke-linecap="butt" stroke-miterlimit="4" stroke-opacity="1" stroke-width=".803" marker-start="url(#Arrow2Lstart-9-9)" d="m 31.999109,165.97148 a 13.739709,14.813845 0 0 1 -3.052288,17.97299 13.739709,14.813845 0 0 1 -16.915846,1.10619 13.739709,14.813845 0 0 1 -5.0446062,-17.44351" transform="matrix(0.0152418,0.99988384,0.99998959,-0.00456193,0,0)"/><path id="path3388-5-3-6" fill="none" fill-opacity="1" stroke="#000" stroke-dasharray="none" stroke-dashoffset="0" stroke-linecap="butt" stroke-miterlimit="4" stroke-opacity="1" stroke-width=".803" marker-start="url(#Arrow2Lstart-9-9-5)" d="m 96.064513,164.38774 a 13.739709,14.813845 0 0 1 -3.052288,17.97299 13.739709,14.813845 0 0 1 -16.915845,1.10619 13.739709,14.813845 0 0 1 -5.044606,-17.44351" transform="matrix(0.0152418,0.99988384,0.99998959,-0.00456193,0,0)"/><path id="path3388-5-3-6-3" fill="none" fill-opacity="1" stroke="#000" stroke-dasharray="none" stroke-dashoffset="0" stroke-linecap="butt" stroke-miterlimit="4" stroke-opacity="1" stroke-width=".803" marker-start="url(#Arrow2Lstart-9-9-5-1)" d="m 159.54203,167.06378 a 13.739709,14.813845 0 0 1 -3.05229,17.973 13.739709,14.813845 0 0 1 -16.91584,1.10618 13.739709,14.813845 0 0 1 -5.04461,-17.44351" transform="matrix(0.0152418,0.99988384,0.99998959,-0.00456193,0,0)"/></svg>