<svg xmlns="http://www.w3.org/2000/svg" xmlns:xlink="http://www.w3.org/1999/xlink" width="199pt" height="548pt" viewBox="0 0 198.91 548"><g id="graph0" class="graph" transform="scale(1 1) rotate(0) translate(4 544)"><title>Ontology</title><polygon fill="#fff" stroke="none" points="-4 4 -4 -544 194.907 -544 194.907 4 -4 4"/><g id="node1" class="node"><title>Shell</title><polygon fill="none" stroke="#000" points="126.907 -540 72.907 -540 72.907 -504 126.907 -504 126.907 -540"/><text x="99.907" y="-519.75" fill="red" font-family="Arial" font-size="10" text-anchor="middle">Shell</text></g><g id="node2" class="node"><title>LookAround</title><ellipse cx="55.907" cy="-450" fill="none" stroke="#000" rx="41.691" ry="18"/><text x="55.907" y="-447.75" fill="#00f" font-family="Arial" font-size="10" text-anchor="middle">LookAround</text></g><g id="edge1" class="edge"><title>Shell-&gt;LookAround</title><path fill="none" stroke="#000" d="M89.0306,-503.697C83.8391,-495.437 77.5261,-485.394 71.8095,-476.299"/><polygon fill="#000" stroke="#000" points="74.64 -474.226 66.355 -467.622 68.714 -477.951 74.64 -474.226"/></g><g id="node3" class="node"><title>LADir</title><ellipse cx="143.907" cy="-378" fill="none" stroke="#000" rx="27" ry="18"/><text x="143.907" y="-375.75" fill="#00f" font-family="Arial" font-size="10" text-anchor="middle">LADir</text></g><g id="edge2" class="edge"><title>Shell-&gt;LADir</title><path fill="none" stroke="#000" d="M109.283,-503.754C114.492,-493.588 120.742,-480.338 124.907,-468 131.76,-447.698 136.684,-423.928 139.8,-406.063"/><polygon fill="#000" stroke="#000" points="143.279 -406.481 141.467 -396.042 136.374 -405.332 143.279 -406.481"/></g><g id="edge3" class="edge"><title>LookAround-&gt;LookAround</title><path fill="none" stroke="#000" d="M85.0356,-462.899C100.937,-465.198 115.502,-460.898 115.502,-450 115.502,-441.486 106.613,-436.999 95.1408,-436.539"/><polygon fill="#000" stroke="#000" points="94.826 -433.051 85.036 -437.101 95.214 -440.041 94.826 -433.051"/></g><g id="edge4" class="edge"><title>LookAround-&gt;LADir</title><path fill="none" stroke="#000" d="M75.0017,-433.811C87.895,-423.555 105.043,-409.915 119.006,-398.808"/><polygon fill="#000" stroke="#000" points="121.575 -401.236 127.222 -392.272 117.217 -395.758 121.575 -401.236"/></g><g id="node4" class="node"><title>LANet</title><ellipse cx="55.907" cy="-306" fill="none" stroke="#000" rx="27" ry="18"/><text x="55.907" y="-303.75" fill="#00f" font-family="Arial" font-size="10" text-anchor="middle">LANet</text></g><g id="edge5" class="edge"><title>LookAround-&gt;LANet</title><path fill="none" stroke="#000" d="M55.907,-431.871C55.907,-407.67 55.907,-363.211 55.907,-334.393"/><polygon fill="#000" stroke="#000" points="59.407 -334.189 55.907 -324.189 52.407 -334.189 59.407 -334.189"/></g><g id="node5" class="node"><title>Downloading</title><ellipse cx="43.907" cy="-162" fill="none" stroke="#000" rx="43.814" ry="18"/><text x="43.907" y="-159.75" fill="#00f" font-family="Arial" font-size="10" text-anchor="middle">Downloading</text></g><g id="edge6" class="edge"><title>LookAround-&gt;Downloading</title><path fill="none" stroke="#000" d="M49.3339,-431.943C40.5642,-408.184 25.4931,-363.58 19.907,-324 13.2364,-276.735 25.8159,-221.753 35.1474,-189.813"/><polygon fill="#000" stroke="#000" points="38.598 -190.494 38.155 -179.909 31.9 -188.46 38.598 -190.494"/></g><g id="edge21" class="edge"><title>LADir-&gt;LADir</title><path fill="none" stroke="#000" d="M163.802,-390.432C176.595,-393.675 188.907,-389.531 188.907,-378 188.907,-369.622 182.408,-365.143 173.946,-364.564"/><polygon fill="#000" stroke="#000" points="173.409 -361.1 163.802 -365.568 174.098 -368.066 173.409 -361.1"/></g><g id="node7" class="node"><title>Move</title><ellipse cx="145.907" cy="-306" fill="none" stroke="#000" rx="27" ry="18"/><text x="145.907" y="-303.75" fill="#00f" font-family="Arial" font-size="10" text-anchor="middle">Move</text></g><g id="edge22" class="edge"><title>LADir-&gt;Move</title><path fill="none" stroke="#000" d="M144.401,-359.697C144.622,-351.983 144.887,-342.712 145.132,-334.112"/><polygon fill="#000" stroke="#000" points="148.631 -334.2 145.418 -324.104 141.634 -334 148.631 -334.2"/></g><g id="edge19" class="edge"><title>LANet-&gt;LANet</title><path fill="none" stroke="#000" d="M75.802,-318.432C88.595,-321.675 100.907,-317.531 100.907,-306 100.907,-297.622 94.4076,-293.143 85.9465,-292.564"/><polygon fill="#000" stroke="#000" points="85.409 -289.1 75.802 -293.568 86.098 -296.066 85.409 -289.1"/></g><g id="node9" class="node"><title>MoveNet</title><ellipse cx="72.907" cy="-234" fill="none" stroke="#000" rx="33.137" ry="18"/><text x="72.907" y="-231.75" fill="#00f" font-family="Arial" font-size="10" text-anchor="middle">MoveNet</text></g><g id="edge20" class="edge"><title>LANet-&gt;MoveNet</title><path fill="none" stroke="#000" d="M60.0222,-288.055C61.9151,-280.261 64.2074,-270.822 66.3307,-262.079"/><polygon fill="#000" stroke="#000" points="69.753 -262.819 68.712 -252.275 62.95 -261.167 69.753 -262.819"/></g><g id="edge16" class="edge"><title>Downloading-&gt;Downloading</title><path fill="none" stroke="#000" d="M74.4851,-174.943C90.8788,-177.142 105.814,-172.828 105.814,-162 105.814,-153.456 96.5151,-148.967 84.5381,-148.535"/><polygon fill="#000" stroke="#000" points="84.29 -145.043 74.485 -149.057 84.653 -152.033 84.29 -145.043"/></g><g id="node6" class="node"><title>Commands</title><ellipse cx="127.907" cy="-90" fill="none" stroke="#000" rx="39.856" ry="18"/><text x="127.907" y="-87.749" fill="#00f" font-family="Arial" font-size="10" text-anchor="middle">Commands</text></g><g id="edge17" class="edge"><title>Downloading-&gt;Commands</title><path fill="none" stroke="#000" d="M62.5493,-145.465C74.0476,-135.883 88.9704,-123.447 101.653,-112.878"/><polygon fill="#000" stroke="#000" points="104.164 -115.342 109.606 -106.251 99.683 -109.964 104.164 -115.342"/></g><g id="node8" class="node"><title>Cleanup</title><ellipse cx="90.907" cy="-18" fill="none" stroke="#000" rx="31.849" ry="18"/><text x="90.907" y="-15.749" fill="#00f" font-family="Arial" font-size="10" text-anchor="middle">Cleanup</text></g><g id="edge18" class="edge"><title>Downloading-&gt;Cleanup</title><path fill="none" stroke="#000" d="M49.5763,-143.871C57.6653,-119.432 72.5921,-74.3344 82.1201,-45.5475"/><polygon fill="#000" stroke="#000" points="85.544 -46.342 85.364 -35.748 78.898 -44.142 85.544 -46.342"/></g><g id="edge7" class="edge"><title>Commands-&gt;Commands</title><path fill="none" stroke="#000" d="M155.921,-102.854C171.494,-105.253 185.835,-100.969 185.835,-90 185.835,-81.5164 177.256,-77.0312 166.164,-76.5444"/><polygon fill="#000" stroke="#000" points="165.699 -73.066 155.921 -77.146 166.11 -80.054 165.699 -73.066"/></g><g id="edge8" class="edge"><title>Commands-&gt;Move</title><path fill="none" stroke="#000" d="M130.019,-108.169C131.253,-118.534 132.782,-132.014 133.907,-144 138.287,-190.681 142.067,-245.098 144.16,-277.211"/><polygon fill="#000" stroke="#000" points="140.693 -277.835 144.829 -287.59 147.679 -277.385 140.693 -277.835"/></g><g id="edge9" class="edge"><title>Commands-&gt;Cleanup</title><path fill="none" stroke="#000" d="M119.139,-72.411C114.715,-64.0421 109.254,-53.7098 104.317,-44.3698"/><polygon fill="#000" stroke="#000" points="107.38 -42.675 99.612 -35.47 101.191 -45.947 107.38 -42.675"/></g><g id="edge10" class="edge"><title>Move-&gt;Downloading</title><path fill="none" stroke="#000" d="M143.059,-287.858C139.229,-268.827 130.96,-237.909 114.907,-216 105.063,-202.565 90.8436,-191.013 77.712,-182.155"/><polygon fill="#000" stroke="#000" points="79.598 -179.207 69.297 -176.73 75.805 -185.09 79.598 -179.207"/></g><g id="edge11" class="edge"><title>Move-&gt;Move</title><path fill="none" stroke="#000" d="M165.802,-318.432C178.595,-321.675 190.907,-317.531 190.907,-306 190.907,-297.622 184.408,-293.143 175.946,-292.564"/><polygon fill="#000" stroke="#000" points="175.409 -289.1 165.802 -293.568 176.098 -296.066 175.409 -289.1"/></g><g id="edge12" class="edge"><title>Move-&gt;MoveNet</title><path fill="none" stroke="#000" d="M127.54,-292.485C116.33,-283.092 102.257,-269.95 91.1003,-258.603"/><polygon fill="#000" stroke="#000" points="93.359 -255.901 83.913 -251.102 88.304 -260.744 93.359 -255.901"/></g><g id="edge23" class="edge"><title>Cleanup-&gt;Cleanup</title><path fill="none" stroke="#000" d="M113.643,-30.6027C127.483,-33.5212 140.581,-29.3203 140.581,-18 140.581,-9.50977 133.213,-5.0242 123.691,-4.54331"/><polygon fill="#000" stroke="#000" points="123.31 -1.063 113.643 -5.397 123.903 -8.038 123.31 -1.063"/></g><g id="edge13" class="edge"><title>MoveNet-&gt;Downloading</title><path fill="none" stroke="#000" d="M65.8869,-216.055C62.5385,-207.973 58.4573,-198.121 54.7247,-189.112"/><polygon fill="#000" stroke="#000" points="57.923 -187.688 50.862 -179.789 51.456 -190.367 57.923 -187.688"/></g><g id="edge14" class="edge"><title>MoveNet-&gt;Commands</title><path fill="none" stroke="#000" d="M88.5992,-217.756C97.7895,-207.874 108.764,-194.228 114.907,-180 123.353,-160.438 126.489,-136.444 127.576,-118.3"/><polygon fill="#000" stroke="#000" points="131.081 -118.252 128.01 -108.112 124.087 -117.954 131.081 -118.252"/></g><g id="edge15" class="edge"><title>MoveNet-&gt;Move</title><path fill="none" stroke="#000" d="M92.6748,-248.695C103.794,-258.12 117.395,-270.872 128.164,-281.856"/><polygon fill="#000" stroke="#000" points="125.663 -284.305 135.103 -289.116 130.724 -279.468 125.663 -284.305"/></g></g></svg>