<svg xmlns="http://www.w3.org/2000/svg" xmlns:xlink="http://www.w3.org/1999/xlink" width="344" height="332pt" viewBox="0 0 257.74 332"><g id="graph0" class="graph" transform="scale(1 1) rotate(0) translate(4 328)"><title>Ontology</title><polygon fill="#fff" stroke="none" points="-4 4 -4 -328 253.744 -328 253.744 4 -4 4"/><g id="node1" class="node"><title>Access</title><polygon fill="none" stroke="#000" points="231.744 -324 177.744 -324 177.744 -288 231.744 -288 231.744 -324"/><text x="204.744" y="-303" fill="red" font-family="Helvetica,sans-Serif" font-size="10" text-anchor="middle">Access</text></g><g id="node2" class="node"><title>Look</title><ellipse cx="204.744" cy="-234" fill="none" stroke="#000" rx="27" ry="18"/><text x="204.744" y="-231" fill="#00f" font-family="Helvetica,sans-Serif" font-size="10" text-anchor="middle">Look</text></g><g id="edge1" class="edge"><title>Access-&gt;Look</title><path fill="none" stroke="#000" d="M204.744,-287.697C204.744,-279.983 204.744,-270.712 204.744,-262.112"/><polygon fill="#000" stroke="#000" points="208.245 -262.104 204.744 -252.104 201.245 -262.104 208.245 -262.104"/></g><g id="edge2" class="edge"><title>Look-&gt;Look</title><path fill="none" stroke="#000" d="M224.64,-246.432C237.432,-249.675 249.744,-245.531 249.744,-234 249.744,-225.622 243.245,-221.143 234.784,-220.564"/><polygon fill="#000" stroke="#000" points="234.246 -217.1 224.64 -221.568 234.935 -224.066 234.246 -217.1"/></g><g id="node3" class="node"><title>Transfer</title><ellipse cx="136.744" cy="-162" fill="none" stroke="#000" rx="30.544" ry="18"/><text x="136.744" y="-159" fill="#00f" font-family="Helvetica,sans-Serif" font-size="10" text-anchor="middle">Transfer</text></g><g id="edge3" class="edge"><title>Look-&gt;Transfer</title><path fill="none" stroke="#000" d="M190.655,-218.496C181.389,-208.958 169.077,-196.283 158.558,-185.455"/><polygon fill="#000" stroke="#000" points="160.764 -182.703 151.285 -177.968 155.743 -187.58 160.764 -182.703"/></g><g id="node4" class="node"><title>Move</title><ellipse cx="148.744" cy="-18" fill="none" stroke="#000" rx="27" ry="18"/><text x="148.744" y="-15" fill="#00f" font-family="Helvetica,sans-Serif" font-size="10" text-anchor="middle">Move</text></g><g id="edge4" class="edge"><title>Look-&gt;Move</title><path fill="none" stroke="#000" d="M195.932,-216.904C185.852,-187.81 171.531,-124.605 156.744,-72 154.354,-63.4968 151.504,-54.309 149.236,-46.0094"/><polygon fill="#000" stroke="#000" points="152.576 -44.941 146.753 -36.09 145.786 -46.641 152.576 -44.941"/></g><g id="edge5" class="edge"><title>Transfer-&gt;Move</title><path fill="none" stroke="#000" d="M133.607,-143.871C133.091,-119.539 136.597,-74.7296 141.042,-45.9272"/><polygon fill="#000" stroke="#000" points="144.547 -46.196 142.785 -35.748 137.648 -45.014 144.547 -46.196"/></g><g id="node5" class="node"><title>Execute</title><ellipse cx="63.745" cy="-90" fill="none" stroke="#000" rx="30.198" ry="18"/><text x="63.745" y="-87" fill="#00f" font-family="Helvetica,sans-Serif" font-size="10" text-anchor="middle">Execute</text></g><g id="edge6" class="edge"><title>Transfer-&gt;Execute</title><path fill="none" stroke="#000" d="M121.263,-146.155C111.198,-136.503 97.897,-123.749 86.6215,-112.937"/><polygon fill="#000" stroke="#000" points="88.844 -110.219 79.204 -105.824 83.999 -115.271 88.844 -110.219"/></g><g id="node6" class="node"><title>Cleanup</title><ellipse cx="30.744" cy="-18" fill="none" stroke="#000" rx="30.991" ry="18"/><text x="30.744" y="-15" fill="#00f" font-family="Helvetica,sans-Serif" font-size="10" text-anchor="middle">Cleanup</text></g><g id="edge7" class="edge"><title>Transfer-&gt;Cleanup</title><path fill="none" stroke="#000" d="M107.81,-156.213C81.0844,-150.09 42.8677,-136.626 24.7445,-108 13.072,-89.5629 16.0666,-64.4588 21.1187,-45.6125"/><polygon fill="#000" stroke="#000" points="24.521 -46.453 24.057 -35.868 17.819 -44.432 24.521 -46.453"/></g><g id="edge8" class="edge"><title>Move-&gt;Look</title><path fill="none" stroke="#000" d="M161.541,-34.2183C166.478,-44.7642 171.136,-59.1624 174.744,-72 187.89,-118.765 200.666,-173.907 205.253,-206.014"/><polygon fill="#000" stroke="#000" points="201.784 -206.478 206.484 -215.974 208.731 -205.62 201.784 -206.478"/></g><g id="edge9" class="edge"><title>Move-&gt;Transfer</title><path fill="none" stroke="#000" d="M151.884,-36.2678C152.384,-60.6071 148.89,-105.237 144.46,-133.987"/><polygon fill="#000" stroke="#000" points="140.957 -133.706 142.723 -144.153 147.857 -134.886 140.957 -133.706"/></g><g id="edge10" class="edge"><title>Move-&gt;Move</title><path fill="none" stroke="#000" d="M168.64,-30.4321C181.432,-33.6753 193.744,-29.5312 193.744,-18 193.744,-9.62183 187.245,-5.14331 178.784,-4.56444"/><polygon fill="#000" stroke="#000" points="178.246 -1.1 168.64 -5.568 178.935 -8.066 178.246 -1.1"/></g><g id="edge11" class="edge"><title>Execute-&gt;Move</title><path fill="none" stroke="#000" d="M80.9455,-74.8345C93.5165,-64.4819 110.73,-50.3057 124.667,-38.8284"/><polygon fill="#000" stroke="#000" points="126.94 -41.491 132.434 -32.432 122.49 -36.087 126.94 -41.491"/></g><g id="edge12" class="edge"><title>Execute-&gt;Execute</title><path fill="none" stroke="#000" d="M85.5096,-102.547C99.0025,-105.573 111.843,-101.391 111.843,-90 111.843,-81.546 104.77,-77.0626 95.6066,-76.5497"/><polygon fill="#000" stroke="#000" points="95.158 -73.076 85.51 -77.453 95.782 -80.048 95.158 -73.076"/></g><g id="edge13" class="edge"><title>Execute-&gt;Cleanup</title><path fill="none" stroke="#000" d="M55.9239,-72.411C52.0197,-64.1292 47.2091,-53.9249 42.8423,-44.662"/><polygon fill="#000" stroke="#000" points="45.939 -43.023 38.509 -35.47 39.607 -46.008 45.939 -43.023"/></g><g id="edge14" class="edge"><title>Cleanup-&gt;Cleanup</title><path fill="none" stroke="#000" d="M52.8017,-30.5475C66.4757,-33.5731 79.4889,-29.3906 79.4889,-18 79.4889,-9.54602 72.3207,-5.06258 63.0343,-4.54969"/><polygon fill="#000" stroke="#000" points="62.455 -1.087 52.802 -5.453 63.071 -8.06 62.455 -1.087"/></g></g></svg>