<svg xmlns="http://www.w3.org/2000/svg" xmlns:xlink="http://www.w3.org/1999/xlink" width="344" height="332pt" viewBox="0 0 257.74 332"><g id="graph0" class="graph" transform="scale(1 1) rotate(0) translate(4 328)"><title>Ontology</title><polygon fill="#fff" stroke="none" points="-4 4 -4 -328 253.744 -328 253.744 4 -4 4"/><g id="node1" class="node"><title>Access</title><polygon fill="none" stroke="#000" points="231.744 -324 177.744 -324 177.744 -288 231.744 -288 231.744 -324"/><text x="204.744" y="-303" fill="red" font-family="Helvetica,sans-Serif" font-size="10" text-anchor="middle">Access</text></g><g id="node2" class="node"><title>Look</title><ellipse cx="204.744" cy="-234" fill="none" stroke="#000" rx="27" ry="18"/><text x="204.744" y="-231" fill="#00f" font-family="Helvetica,sans-Serif" font-size="10" text-anchor="middle">Look</text></g><g id="edge1" class="edge"><title>Access-&gt;Look</title><path fill="none" stroke="#000" d="M204.744,-287.697C204.744,-279.983 204.744,-270.712 204.744,-262.112"/><polygon fill="#000" stroke="#000" points="208.245 -262.104 204.744 -252.104 201.245 -262.104 208.245 -262.104"/></g><g id="edge2" class="edge"><title>Look-&gt;Look</title><path fill="none" stroke="#000" d="M224.64,-246.432C237.432,-249.675 249.744,-245.531 249.744,-234 249.744,-225.622 243.245,-221.143 234.784,-220.564"/><polygon fill="#000" stroke="#000" points="234.246 -217.1 224.64 -221.568 234.935 -224.066 234.246 -217.1"/></g><g id="node3" class="node"><title>Transfer</title><ellipse cx="118.744" cy="-162" fill="none" stroke="#000" rx="30.544" ry="18"/><text x="118.744" y="-159" fill="#00f" font-family="Helvetica,sans-Serif" font-size="10" text-anchor="middle">Transfer</text></g><g id="edge3" class="edge"><title>Look-&gt;Transfer</title><path fill="none" stroke="#000" d="M188.163,-219.503C175.596,-209.274 158.114,-195.045 143.838,-183.425"/><polygon fill="#000" stroke="#000" points="145.829 -180.533 135.864 -176.934 141.41 -185.962 145.829 -180.533"/></g><g id="node4" class="node"><title>Move</title><ellipse cx="148.744" cy="-18" fill="none" stroke="#000" rx="27" ry="18"/><text x="148.744" y="-15" fill="#00f" font-family="Helvetica,sans-Serif" font-size="10" text-anchor="middle">Move</text></g><g id="edge4" class="edge"><title>Look-&gt;Move</title><path fill="none" stroke="#000" d="M196.635,-216.563C183.42,-179.867 159.871,-90.9684 151.144,-46.0032"/><polygon fill="#000" stroke="#000" points="154.574 -45.3 149.344 -36.085 147.686 -46.55 154.574 -45.3"/></g><g id="edge5" class="edge"><title>Transfer-&gt;Transfer</title><path fill="none" stroke="#000" d="M140.701,-174.547C154.312,-177.573 167.266,-173.391 167.266,-162 167.266,-153.546 160.131,-149.063 150.887,-148.55"/><polygon fill="#000" stroke="#000" points="150.353 -145.083 140.701 -149.453 150.971 -152.056 150.353 -145.083"/></g><g id="edge6" class="edge"><title>Transfer-&gt;Move</title><path fill="none" stroke="#000" d="M117.779,-143.871C120.372,-119.301 129.714,-73.8488 137.867,-45.0846"/><polygon fill="#000" stroke="#000" points="141.277 -45.896 140.802 -35.312 134.573 -43.883 141.277 -45.896"/></g><g id="node5" class="node"><title>Execute</title><ellipse cx="63.745" cy="-90" fill="none" stroke="#000" rx="30.198" ry="18"/><text x="63.745" y="-87" fill="#00f" font-family="Helvetica,sans-Serif" font-size="10" text-anchor="middle">Execute</text></g><g id="edge7" class="edge"><title>Transfer-&gt;Execute</title><path fill="none" stroke="#000" d="M106.538,-145.465C99.4175,-136.402 90.291,-124.786 82.2967,-114.612"/><polygon fill="#000" stroke="#000" points="84.847 -112.193 75.917 -106.492 79.343 -116.517 84.847 -112.193"/></g><g id="node6" class="node"><title>Cleanup</title><ellipse cx="30.744" cy="-18" fill="none" stroke="#000" rx="30.991" ry="18"/><text x="30.744" y="-15" fill="#00f" font-family="Helvetica,sans-Serif" font-size="10" text-anchor="middle">Cleanup</text></g><g id="edge8" class="edge"><title>Transfer-&gt;Cleanup</title><path fill="none" stroke="#000" d="M91.4777,-153.894C69.154,-146.477 39.0139,-132.427 24.7445,-108 13.7375,-89.158 16.6651,-64.0947 21.5223,-45.367"/><polygon fill="#000" stroke="#000" points="24.903 -46.274 24.343 -35.694 18.183 -44.315 24.903 -46.274"/></g><g id="edge9" class="edge"><title>Move-&gt;Look</title><path fill="none" stroke="#000" d="M156.822,-35.3479C170.022,-71.9674 193.582,-160.888 202.329,-205.916"/><polygon fill="#000" stroke="#000" points="198.902 -206.636 204.134 -215.849 205.79 -205.385 198.902 -206.636"/></g><g id="edge10" class="edge"><title>Move-&gt;Transfer</title><path fill="none" stroke="#000" d="M149.687,-36.3465C147.069,-60.8978 137.803,-105.981 129.691,-134.672"/><polygon fill="#000" stroke="#000" points="126.284 -133.849 126.769 -144.433 132.99 -135.857 126.284 -133.849"/></g><g id="edge11" class="edge"><title>Move-&gt;Move</title><path fill="none" stroke="#000" d="M168.64,-30.4321C181.432,-33.6753 193.744,-29.5312 193.744,-18 193.744,-9.62183 187.245,-5.14331 178.784,-4.56444"/><polygon fill="#000" stroke="#000" points="178.246 -1.1 168.64 -5.568 178.935 -8.066 178.246 -1.1"/></g><g id="edge12" class="edge"><title>Execute-&gt;Move</title><path fill="none" stroke="#000" d="M80.9455,-74.8345C93.5165,-64.4819 110.73,-50.3057 124.667,-38.8284"/><polygon fill="#000" stroke="#000" points="126.94 -41.491 132.434 -32.432 122.49 -36.087 126.94 -41.491"/></g><g id="edge13" class="edge"><title>Execute-&gt;Execute</title><path fill="none" stroke="#000" d="M85.5096,-102.547C99.0025,-105.573 111.843,-101.391 111.843,-90 111.843,-81.546 104.77,-77.0626 95.6066,-76.5497"/><polygon fill="#000" stroke="#000" points="95.158 -73.076 85.51 -77.453 95.782 -80.048 95.158 -73.076"/></g><g id="edge14" class="edge"><title>Execute-&gt;Cleanup</title><path fill="none" stroke="#000" d="M55.9239,-72.411C52.0197,-64.1292 47.2091,-53.9249 42.8423,-44.662"/><polygon fill="#000" stroke="#000" points="45.939 -43.023 38.509 -35.47 39.607 -46.008 45.939 -43.023"/></g><g id="edge15" class="edge"><title>Cleanup-&gt;Cleanup</title><path fill="none" stroke="#000" d="M52.8017,-30.5475C66.4757,-33.5731 79.4889,-29.3906 79.4889,-18 79.4889,-9.54602 72.3207,-5.06258 63.0343,-4.54969"/><polygon fill="#000" stroke="#000" points="62.455 -1.087 52.802 -5.453 63.071 -8.06 62.455 -1.087"/></g></g></svg>