<svg xmlns="http://www.w3.org/2000/svg" xmlns:xlink="http://www.w3.org/1999/xlink" width="576" height="68" viewBox="0 0 432 50.7"><g id="graph0" class="graph" transform="scale(0.269663 0.269663) rotate(0) translate(4 184)"><title>CommandAbstraction</title><polygon fill="#fff" stroke="none" points="-4 4 -4 -184 1598 -184 1598 4 -4 4"/><g id="node1" class="node"><title>Command</title><ellipse cx="1076" cy="-162" fill="none" stroke="#000" rx="44.66" ry="18"/><text x="1076" y="-159.299" fill="red" font-family="ArialMT" font-size="12" text-anchor="middle">Command</text></g><g id="node2" class="node"><title>LookAround</title><polygon fill="none" stroke="#000" points="247.217 -108 166.783 -108 166.783 -72 247.217 -72 247.217 -108"/><text x="207" y="-87.299" fill="#00f" font-family="ArialMT" font-size="12" text-anchor="middle">LookAround</text></g><g id="edge1" class="edge"><title>Command-&gt;LookAround</title><path fill="none" stroke="#000" stroke-dasharray="5 2" d="M1032.31,-157.481C885.957,-145.692 413.426,-107.628 257.467,-95.0652"/><polygon fill="#000" stroke="#000" points="257.475 -91.555 247.226 -94.24 256.913 -98.532 257.475 -91.555"/></g><g id="node3" class="node"><title>LANet</title><polygon fill="none" stroke="#000" points="630 -108 576 -108 576 -72 630 -72 630 -108"/><text x="603" y="-87.299" fill="#00f" font-family="ArialMT" font-size="12" text-anchor="middle">LANet</text></g><g id="edge2" class="edge"><title>Command-&gt;LANet</title><path fill="none" stroke="#000" stroke-dasharray="5 2" d="M1034.44,-154.849C943.24,-141.353 726.801,-109.322 639.977,-96.4722"/><polygon fill="#000" stroke="#000" points="640.453 -93.005 630.048 -95.003 639.428 -99.929 640.453 -93.005"/></g><g id="node4" class="node"><title>LADir</title><polygon fill="none" stroke="#000" points="900 -108 846 -108 846 -72 900 -72 900 -108"/><text x="873" y="-87.299" fill="#00f" font-family="ArialMT" font-size="12" text-anchor="middle">LADir</text></g><g id="edge3" class="edge"><title>Command-&gt;LADir</title><path fill="none" stroke="#000" stroke-dasharray="5 2" d="M1042.93,-149.597C1006.42,-137.008 947.804,-116.795 909.848,-103.706"/><polygon fill="#000" stroke="#000" points="910.793 -100.33 900.198 -100.379 908.511 -106.947 910.793 -100.33"/></g><g id="node5" class="node"><title>Downloading</title><polygon fill="none" stroke="#000" points="1019.88 -108 934.118 -108 934.118 -72 1019.88 -72 1019.88 -108"/><text x="977" y="-87.299" fill="#00f" font-family="ArialMT" font-size="12" text-anchor="middle">Downloading</text></g><g id="edge4" class="edge"><title>Command-&gt;Downloading</title><path fill="none" stroke="#000" stroke-dasharray="5 2" d="M1054.52,-145.811C1041.4,-136.534 1024.36,-124.488 1009.6,-114.052"/><polygon fill="#000" stroke="#000" points="1011.41 -111.042 1001.22 -108.127 1007.37 -116.758 1011.41 -111.042"/></g><g id="node6" class="node"><title>Commands</title><polygon fill="none" stroke="#000" points="1114.85 -108 1037.15 -108 1037.15 -72 1114.85 -72 1114.85 -108"/><text x="1076" y="-87.299" fill="#00f" font-family="ArialMT" font-size="12" text-anchor="middle">Commands</text></g><g id="edge5" class="edge"><title>Command-&gt;Commands</title><path fill="none" stroke="#000" stroke-dasharray="5 2" d="M1076,-143.697C1076,-135.983 1076,-126.712 1076,-118.112"/><polygon fill="#000" stroke="#000" points="1079.5 -118.104 1076 -108.104 1072.5 -118.104 1079.5 -118.104"/></g><g id="node7" class="node"><title>Move</title><polygon fill="none" stroke="#000" points="1234 -108 1180 -108 1180 -72 1234 -72 1234 -108"/><text x="1207" y="-87.299" fill="#00f" font-family="ArialMT" font-size="12" text-anchor="middle">Move</text></g><g id="edge6" class="edge"><title>Command-&gt;Move</title><path fill="none" stroke="#000" stroke-dasharray="5 2" d="M1101.88,-147.17C1121.59,-136.641 1148.95,-122.019 1170.82,-110.332"/><polygon fill="#000" stroke="#000" points="1172.65 -113.324 1179.82 -105.524 1169.35 -107.15 1172.65 -113.324"/></g><g id="node8" class="node"><title>MoveNet</title><polygon fill="none" stroke="#000" points="1332.02 -108 1267.98 -108 1267.98 -72 1332.02 -72 1332.02 -108"/><text x="1300" y="-87.299" fill="#00f" font-family="ArialMT" font-size="12" text-anchor="middle">MoveNet</text></g><g id="edge7" class="edge"><title>Command-&gt;MoveNet</title><path fill="none" stroke="#000" stroke-dasharray="5 2" d="M1110.51,-150.216C1150.16,-137.825 1215.23,-117.491 1257.84,-104.174"/><polygon fill="#000" stroke="#000" points="1259.13 -107.438 1267.64 -101.114 1257.05 -100.756 1259.13 -107.438"/></g><g id="node9" class="node"><title>Cleanup</title><polygon fill="none" stroke="#000" points="1442.2 -108 1381.8 -108 1381.8 -72 1442.2 -72 1442.2 -108"/><text x="1412" y="-87.299" fill="#00f" font-family="ArialMT" font-size="12" text-anchor="middle">Cleanup</text></g><g id="edge8" class="edge"><title>Command-&gt;Cleanup</title><path fill="none" stroke="#000" stroke-dasharray="5 2" d="M1115.61,-153.561C1167.5,-143.704 1261.26,-125.513 1341,-108 1351.03,-105.798 1361.82,-103.287 1371.88,-100.884"/><polygon fill="#000" stroke="#000" points="1372.75 -104.275 1381.65 -98.531 1371.11 -97.469 1372.75 -104.275"/></g><g id="node10" class="node"><title>Shell</title><polygon fill="none" stroke="#000" points="1578 -108 1524 -108 1524 -72 1578 -72 1578 -108"/><text x="1551" y="-87.299" fill="#00f" font-family="ArialMT" font-size="12" text-anchor="middle">Shell</text></g><g id="edge9" class="edge"><title>Command-&gt;Shell</title><path fill="none" stroke="#000" stroke-dasharray="5 2" d="M1117.96,-155.46C1187.34,-146.211 1330.32,-126.782 1451,-108 1471.85,-104.755 1495.09,-100.824 1513.91,-97.5596"/><polygon fill="#000" stroke="#000" points="1514.62 -100.989 1523.87 -95.823 1513.42 -94.093 1514.62 -100.989"/></g><g id="node11" class="node"><title>set</title><polygon fill="none" stroke="#000" points="54 -36 0 -36 0 0 54 0 54 -36"/><text x="27" y="-15.749" font-family="ArialMT" font-size="10" text-anchor="middle">set</text></g><g id="edge10" class="edge"><title>LookAround-&gt;set</title><path fill="none" stroke="#00f" d="M166.593,-75.2054C139.623,-65.7565 103.243,-52.5496 63.3858,-35.9979"/><polygon fill="#00f" stroke="#00f" points="64.587 -32.706 54.011 -32.069 61.881 -39.162 64.587 -32.706"/></g><g id="node12" class="node"><title>query</title><polygon fill="none" stroke="#000" points="126 -36 72 -36 72 0 126 0 126 -36"/><text x="99" y="-15.749" font-family="ArialMT" font-size="10" text-anchor="middle">query</text></g><g id="edge11" class="edge"><title>LookAround-&gt;query</title><path fill="none" stroke="#00f" d="M180.58,-71.8761C166.59,-62.8083 149.224,-51.5523 134.114,-41.7592"/><polygon fill="#00f" stroke="#00f" points="135.817 -38.692 125.521 -36.19 132.009 -44.566 135.817 -38.692"/></g><g id="node13" class="node"><title>tasklist</title><polygon fill="none" stroke="#000" points="198 -36 144 -36 144 0 198 0 198 -36"/><text x="171" y="-15.749" font-family="ArialMT" font-size="10" text-anchor="middle">tasklist</text></g><g id="edge12" class="edge"><title>LookAround-&gt;tasklist</title><path fill="none" stroke="#00f" d="M198.101,-71.6966C194.003,-63.7284 189.051,-54.0995 184.507,-45.2641"/><polygon fill="#00f" stroke="#00f" points="187.483 -43.397 179.797 -36.104 181.258 -46.598 187.483 -43.397"/></g><g id="node14" class="node"><title>sc</title><polygon fill="none" stroke="#000" points="270 -36 216 -36 216 0 270 0 270 -36"/><text x="243" y="-15.749" font-family="ArialMT" font-size="10" text-anchor="middle">sc</text></g><g id="edge13" class="edge"><title>LookAround-&gt;sc</title><path fill="none" stroke="#00f" d="M215.899,-71.6966C219.997,-63.7284 224.949,-54.0995 229.493,-45.2641"/><polygon fill="#00f" stroke="#00f" points="232.742 -46.598 234.203 -36.104 226.517 -43.397 232.742 -46.598"/></g><g id="node15" class="node"><title>whoami</title><polygon fill="none" stroke="#000" points="342 -36 288 -36 288 0 342 0 342 -36"/><text x="315" y="-15.749" font-family="ArialMT" font-size="10" text-anchor="middle">whoami</text></g><g id="edge14" class="edge"><title>LookAround-&gt;whoami</title><path fill="none" stroke="#00f" d="M233.42,-71.8761C247.41,-62.8083 264.776,-51.5523 279.886,-41.7592"/><polygon fill="#00f" stroke="#00f" points="281.991 -44.566 288.479 -36.19 278.183 -38.692 281.991 -44.566"/></g><g id="node16" class="node"><title>ipconfig</title><polygon fill="none" stroke="#000" points="414 -36 360 -36 360 0 414 0 414 -36"/><text x="387" y="-15.749" font-family="ArialMT" font-size="10" text-anchor="middle">ipconfig</text></g><g id="edge15" class="edge"><title>LANet-&gt;ipconfig</title><path fill="none" stroke="green" d="M575.732,-82.3778C541.902,-73.8602 482.413,-57.8969 423.734,-36.0042"/><polygon fill="green" stroke="green" points="424.919 -32.71 414.328 -32.44 422.439 -39.256 424.919 -32.71"/></g><g id="node17" class="node"><title>ping</title><polygon fill="none" stroke="#000" points="486 -36 432 -36 432 0 486 0 486 -36"/><text x="459" y="-15.749" font-family="ArialMT" font-size="10" text-anchor="middle">ping</text></g><g id="edge16" class="edge"><title>LANet-&gt;ping</title><path fill="none" stroke="green" d="M575.915,-75.8335C553.231,-64.8066 520.643,-48.9655 495.632,-36.8072"/><polygon fill="green" stroke="green" points="496.977 -33.57 486.453 -32.345 493.917 -39.865 496.977 -33.57"/></g><g id="node18" class="node"><title>net user</title><polygon fill="none" stroke="#000" points="558 -36 504 -36 504 0 558 0 558 -36"/><text x="531" y="-15.749" font-family="ArialMT" font-size="10" text-anchor="middle">net user</text></g><g id="edge17" class="edge"><title>LANet-&gt;net user</title><path fill="none" stroke="green" d="M585.202,-71.6966C576.396,-63.135 565.618,-52.6562 555.999,-43.3045"/><polygon fill="green" stroke="green" points="558.203 -40.566 548.593 -36.104 553.323 -45.585 558.203 -40.566"/></g><g id="node19" class="node"><title>net view</title><polygon fill="none" stroke="#000" points="630 -36 576 -36 576 0 630 0 630 -36"/><text x="603" y="-15.749" font-family="ArialMT" font-size="10" text-anchor="middle">net view</text></g><g id="edge18" class="edge"><title>LANet-&gt;net view</title><path fill="none" stroke="green" d="M603,-71.6966C603,-63.9827 603,-54.7125 603,-46.1124"/><polygon fill="green" stroke="green" points="606.5 -46.104 603 -36.104 599.5 -46.104 606.5 -46.104"/></g><g id="node20" class="node"><title>net localgroup</title><polygon fill="none" stroke="#000" points="726.322 -36 647.678 -36 647.678 0 726.322 0 726.322 -36"/><text x="687" y="-15.749" font-family="ArialMT" font-size="10" text-anchor="middle">net localgroup</text></g><g id="edge19" class="edge"><title>LANet-&gt;net localgroup</title><path fill="none" stroke="green" d="M623.764,-71.6966C634.241,-62.9655 647.111,-52.2405 658.5,-42.7503"/><polygon fill="green" stroke="green" points="661.033 -45.195 666.475 -36.104 656.552 -39.817 661.033 -45.195"/></g><g id="node21" class="node"><title>netstat</title><polygon fill="none" stroke="#000" points="798 -36 744 -36 744 0 798 0 798 -36"/><text x="771" y="-15.749" font-family="ArialMT" font-size="10" text-anchor="middle">netstat</text></g><g id="edge20" class="edge"><title>LANet-&gt;netstat</title><path fill="none" stroke="green" d="M630.246,-78.6052C655.187,-68.9708 693.288,-53.9575 734.542,-36.0861"/><polygon fill="green" stroke="green" points="736.184 -39.188 743.952 -31.983 733.387 -32.772 736.184 -39.188"/></g><g id="node22" class="node"><title>dir</title><polygon fill="none" stroke="#000" points="870 -36 816 -36 816 0 870 0 870 -36"/><text x="843" y="-15.749" font-family="ArialMT" font-size="10" text-anchor="middle">dir</text></g><g id="edge21" class="edge"><title>LADir-&gt;dir</title><path fill="none" stroke="orange" d="M865.584,-71.6966C862.206,-63.8132 858.13,-54.3042 854.377,-45.5464"/><polygon fill="orange" stroke="orange" points="857.487 -43.917 850.33 -36.104 851.053 -46.675 857.487 -43.917"/></g><g id="node23" class="node"><title>download</title><polygon fill="none" stroke="#000" points="946.313 -36 887.687 -36 887.687 0 946.313 0 946.313 -36"/><text x="917" y="-15.749" font-family="ArialMT" font-size="10" text-anchor="middle">download</text></g><g id="edge22" class="edge"><title>Downloading-&gt;download</title><path fill="none" stroke="brown" d="M962.169,-71.6966C954.975,-63.3046 946.203,-53.0705 938.31,-43.8613"/><polygon fill="brown" stroke="brown" points="940.826 -41.419 931.661 -36.104 935.511 -45.975 940.826 -41.419"/></g><g id="node24" class="node"><title>type</title><polygon fill="none" stroke="#000" points="1018 -36 964 -36 964 0 1018 0 1018 -36"/><text x="991" y="-15.749" font-family="ArialMT" font-size="10" text-anchor="middle">type</text></g><g id="edge23" class="edge"><title>Downloading-&gt;type</title><path fill="none" stroke="brown" d="M980.461,-71.6966C982.003,-63.9827 983.858,-54.7125 985.578,-46.1124"/><polygon fill="brown" stroke="brown" points="989.05 -46.597 987.579 -36.104 982.186 -45.224 989.05 -46.597"/></g><g id="node25" class="node"><title>.*exe</title><polygon fill="none" stroke="#000" points="1090 -36 1036 -36 1036 0 1090 0 1090 -36"/><text x="1063" y="-15.749" font-family="ArialMT" font-size="10" text-anchor="middle">.*exe</text></g><g id="edge24" class="edge"><title>Commands-&gt;.*exe</title><path fill="none" stroke="red" d="M1072.79,-71.6966C1071.35,-63.9827 1069.63,-54.7125 1068.04,-46.1124"/><polygon fill="red" stroke="red" points="1071.44 -45.297 1066.18 -36.104 1064.56 -46.575 1071.44 -45.297"/></g><g id="node26" class="node"><title>cd</title><polygon fill="none" stroke="#000" points="1162 -36 1108 -36 1108 0 1162 0 1162 -36"/><text x="1135" y="-15.749" font-family="ArialMT" font-size="10" text-anchor="middle">cd</text></g><g id="edge25" class="edge"><title>Move-&gt;cd</title><path fill="none" stroke="purple" d="M1189.2,-71.6966C1180.4,-63.135 1169.62,-52.6562 1160,-43.3045"/><polygon fill="purple" stroke="purple" points="1162.2 -40.566 1152.59 -36.104 1157.32 -45.585 1162.2 -40.566"/></g><g id="node27" class="node"><title>copy</title><polygon fill="none" stroke="#000" points="1234 -36 1180 -36 1180 0 1234 0 1234 -36"/><text x="1207" y="-15.749" font-family="ArialMT" font-size="10" text-anchor="middle">copy</text></g><g id="edge26" class="edge"><title>Move-&gt;copy</title><path fill="none" stroke="purple" d="M1207,-71.6966C1207,-63.9827 1207,-54.7125 1207,-46.1124"/><polygon fill="purple" stroke="purple" points="1210.5 -46.104 1207 -36.104 1203.5 -46.104 1210.5 -46.104"/></g><g id="node28" class="node"><title>ren</title><polygon fill="none" stroke="#000" points="1306 -36 1252 -36 1252 0 1306 0 1306 -36"/><text x="1279" y="-15.749" font-family="ArialMT" font-size="10" text-anchor="middle">ren</text></g><g id="edge27" class="edge"><title>Move-&gt;ren</title><path fill="none" stroke="purple" d="M1224.8,-71.6966C1233.6,-63.135 1244.38,-52.6562 1254,-43.3045"/><polygon fill="purple" stroke="purple" points="1256.68 -45.585 1261.41 -36.104 1251.8 -40.566 1256.68 -45.585"/></g><g id="node29" class="node"><title>move</title><polygon fill="none" stroke="#000" points="1378 -36 1324 -36 1324 0 1378 0 1378 -36"/><text x="1351" y="-15.749" font-family="ArialMT" font-size="10" text-anchor="middle">move</text></g><g id="edge28" class="edge"><title>Move-&gt;move</title><path fill="none" stroke="purple" d="M1234.09,-75.8335C1256.77,-64.8066 1289.36,-48.9655 1314.37,-36.8072"/><polygon fill="purple" stroke="purple" points="1316.08 -39.865 1323.55 -32.345 1313.02 -33.57 1316.08 -39.865"/></g><g id="node30" class="node"><title>net use</title><polygon fill="none" stroke="#000" points="1450 -36 1396 -36 1396 0 1450 0 1450 -36"/><text x="1423" y="-15.749" font-family="ArialMT" font-size="10" text-anchor="middle">net use</text></g><g id="edge29" class="edge"><title>MoveNet-&gt;net use</title><path fill="none" stroke="#0ff" d="M1330.09,-71.8761C1347.17,-62.1563 1368.67,-49.9222 1386.68,-39.6706"/><polygon fill="#0ff" stroke="#0ff" points="1388.78 -42.502 1395.74 -34.514 1385.32 -36.419 1388.78 -42.502"/></g><g id="node31" class="node"><title>del</title><polygon fill="none" stroke="#000" points="1522 -36 1468 -36 1468 0 1522 0 1522 -36"/><text x="1495" y="-15.749" font-family="ArialMT" font-size="10" text-anchor="middle">del</text></g><g id="edge30" class="edge"><title>Cleanup-&gt;del</title><path fill="none" stroke="#ff0" d="M1432.52,-71.6966C1442.87,-62.9655 1455.59,-52.2405 1466.84,-42.7503"/><polygon fill="#ff0" stroke="#ff0" points="1469.33 -45.227 1474.72 -36.104 1464.82 -39.876 1469.33 -45.227"/></g><g id="node32" class="node"><title>cmd.exe</title><polygon fill="none" stroke="#000" points="1594 -36 1540 -36 1540 0 1594 0 1594 -36"/><text x="1567" y="-15.749" font-family="ArialMT" font-size="10" text-anchor="middle">cmd.exe</text></g><g id="edge31" class="edge"><title>Shell-&gt;cmd.exe</title><path fill="none" stroke="#000" d="M1554.96,-71.6966C1556.72,-63.9827 1558.84,-54.7125 1560.8,-46.1124"/><polygon fill="#000" stroke="#000" points="1564.27 -46.633 1563.09 -36.104 1557.45 -45.073 1564.27 -46.633"/></g></g></svg>